<svg width="120" height="89" viewBox="0 0 120 89" fill="none" xmlns="http://www.w3.org/2000/svg">
<path d="M0.758523 84.9807V76.2534H2.60369V83.4594H6.34517V84.9807H0.758523ZM21.3672 80.6171C21.3672 81.5688 21.1868 82.3784 20.826 83.0461C20.468 83.7137 19.9794 84.2236 19.3601 84.5759C18.7436 84.9253 18.0504 85.1 17.2805 85.1C16.5049 85.1 15.8089 84.9239 15.1924 84.5716C14.576 84.2193 14.0887 83.7094 13.7308 83.0418C13.3728 82.3742 13.1939 81.5659 13.1939 80.6171C13.1939 79.6654 13.3728 78.8557 13.7308 78.1881C14.0887 77.5205 14.576 77.012 15.1924 76.6625C15.8089 76.3103 16.5049 76.1341 17.2805 76.1341C18.0504 76.1341 18.7436 76.3103 19.3601 76.6625C19.9794 77.012 20.468 77.5205 20.826 78.1881C21.1868 78.8557 21.3672 79.6654 21.3672 80.6171ZM19.4964 80.6171C19.4964 80.0006 19.4041 79.4807 19.2194 79.0574C19.0376 78.6341 18.7805 78.3131 18.4481 78.0943C18.1157 77.8756 17.7265 77.7662 17.2805 77.7662C16.8345 77.7662 16.4453 77.8756 16.1129 78.0943C15.7805 78.3131 15.522 78.6341 15.3373 79.0574C15.1555 79.4807 15.0646 80.0006 15.0646 80.6171C15.0646 81.2336 15.1555 81.7534 15.3373 82.1767C15.522 82.6 15.7805 82.9211 16.1129 83.1398C16.4453 83.3586 16.8345 83.4679 17.2805 83.4679C17.7265 83.4679 18.1157 83.3586 18.4481 83.1398C18.7805 82.9211 19.0376 82.6 19.2194 82.1767C19.4041 81.7534 19.4964 81.2336 19.4964 80.6171ZM34.6409 79.0745C34.5813 78.8671 34.4975 78.6838 34.3895 78.5247C34.2815 78.3628 34.1494 78.2265 33.9932 78.1157C33.8398 78.002 33.6637 77.9154 33.4648 77.8557C33.2688 77.7961 33.0514 77.7662 32.8128 77.7662C32.3668 77.7662 31.9747 77.877 31.6367 78.0986C31.3014 78.3202 31.0401 78.6426 30.8526 79.0659C30.6651 79.4864 30.5713 80.0006 30.5713 80.6086C30.5713 81.2165 30.6637 81.7336 30.8483 82.1597C31.033 82.5858 31.2943 82.9111 31.6324 83.1355C31.9705 83.3571 32.3696 83.4679 32.8298 83.4679C33.2475 83.4679 33.604 83.3941 33.8994 83.2463C34.1977 83.0958 34.425 82.8841 34.5813 82.6114C34.7404 82.3387 34.8199 82.0162 34.8199 81.6441L35.1949 81.6995H32.9449V80.3103H36.5969V81.4097C36.5969 82.1767 36.435 82.8358 36.1111 83.387C35.7872 83.9353 35.3412 84.3586 34.773 84.6568C34.2048 84.9523 33.5543 85.1 32.8213 85.1C32.0031 85.1 31.2844 84.9196 30.6651 84.5588C30.0458 84.1952 29.5628 83.6796 29.2162 83.012C28.8725 82.3415 28.7006 81.5461 28.7006 80.6256C28.7006 79.9182 28.8029 79.2875 29.0074 78.7336C29.2148 78.1767 29.5046 77.7051 29.8767 77.3188C30.2489 76.9324 30.6821 76.6384 31.1764 76.4367C31.6708 76.235 32.2063 76.1341 32.783 76.1341C33.2773 76.1341 33.7375 76.2066 34.1637 76.3515C34.5898 76.4935 34.9676 76.6952 35.2972 76.9566C35.6296 77.2179 35.9009 77.529 36.1111 77.8898C36.3213 78.2478 36.4563 78.6426 36.5159 79.0745H34.6409ZM45.9481 76.2534V84.9807H44.1029V76.2534H45.9481ZM58.3206 78.7634C58.2865 78.4196 58.1402 78.1526 57.8816 77.9622C57.6231 77.7719 57.2723 77.6767 56.8291 77.6767C56.5279 77.6767 56.2737 77.7193 56.0663 77.8046C55.8589 77.887 55.6998 78.002 55.589 78.1497C55.4811 78.2975 55.4271 78.4651 55.4271 78.6526C55.4214 78.8088 55.4541 78.9452 55.5251 79.0617C55.599 79.1782 55.6998 79.279 55.8277 79.3642C55.9555 79.4466 56.1032 79.5191 56.2708 79.5816C56.4385 79.6412 56.6174 79.6924 56.8078 79.735L57.5919 79.9225C57.9725 80.0077 58.322 80.1213 58.6402 80.2634C58.9583 80.4054 59.2339 80.5801 59.4669 80.7875C59.6998 80.9949 59.8802 81.2392 60.0081 81.5205C60.1387 81.8017 60.2055 82.1242 60.2083 82.4878C60.2055 83.0219 60.0691 83.485 59.7992 83.877C59.5322 84.2662 59.1458 84.5688 58.6402 84.7847C58.1373 84.9978 57.5308 85.1043 56.8206 85.1043C56.116 85.1043 55.5024 84.9963 54.9796 84.7804C54.4598 84.5645 54.0535 84.2449 53.7609 83.8216C53.4711 83.3955 53.3191 82.8685 53.3049 82.2407H55.0904C55.1103 82.5333 55.1941 82.7776 55.3419 82.9736C55.4924 83.1668 55.6927 83.3131 55.9427 83.4125C56.1956 83.5091 56.4811 83.5574 56.7992 83.5574C57.1117 83.5574 57.3831 83.512 57.6132 83.4211C57.8461 83.3301 58.0265 83.2037 58.1544 83.0418C58.2822 82.8799 58.3461 82.6938 58.3461 82.4836C58.3461 82.2875 58.2879 82.1228 58.1714 81.9892C58.0578 81.8557 57.8902 81.7421 57.6686 81.6483C57.4498 81.5546 57.1813 81.4693 56.8632 81.3926L55.9129 81.154C55.1771 80.975 54.5961 80.6952 54.17 80.3145C53.7438 79.9338 53.5322 79.4211 53.535 78.7762C53.5322 78.2478 53.6728 77.7861 53.9569 77.3912C54.2438 76.9963 54.6373 76.6881 55.1373 76.4665C55.6373 76.2449 56.2055 76.1341 56.8419 76.1341C57.4896 76.1341 58.0549 76.2449 58.5379 76.4665C59.0237 76.6881 59.4015 76.9963 59.6714 77.3912C59.9413 77.7861 60.0805 78.2435 60.089 78.7634H58.3206ZM67.2371 77.7747V76.2534H74.4047V77.7747H71.7328V84.9807H69.9089V77.7747H67.2371ZM83.5503 76.2534V84.9807H81.7051V76.2534H83.5503ZM98.8886 79.3088H97.0222C96.9881 79.0674 96.9185 78.8529 96.8134 78.6654C96.7082 78.475 96.5733 78.3131 96.4085 78.1796C96.2438 78.0461 96.0534 77.9438 95.8375 77.8728C95.6244 77.8017 95.3929 77.7662 95.1429 77.7662C94.6912 77.7662 94.2977 77.8784 93.9625 78.1029C93.6273 78.3245 93.3673 78.6483 93.1827 79.0745C92.998 79.4978 92.9057 80.012 92.9057 80.6171C92.9057 81.2392 92.998 81.762 93.1827 82.1853C93.3702 82.6086 93.6315 82.9282 93.9668 83.1441C94.302 83.36 94.6898 83.4679 95.1301 83.4679C95.3773 83.4679 95.606 83.4353 95.8162 83.3699C96.0293 83.3046 96.2182 83.2094 96.383 83.0844C96.5477 82.9566 96.6841 82.8017 96.7921 82.6199C96.9029 82.4381 96.9796 82.2307 97.0222 81.9978L98.8886 82.0063C98.8404 82.4068 98.7196 82.7932 98.5264 83.1654C98.3361 83.5347 98.079 83.8657 97.7551 84.1583C97.4341 84.448 97.0506 84.6782 96.6046 84.8486C96.1614 85.0162 95.66 85.1 95.1003 85.1C94.3219 85.1 93.6259 84.9239 93.0122 84.5716C92.4014 84.2193 91.9185 83.7094 91.5634 83.0418C91.2111 82.3742 91.035 81.5659 91.035 80.6171C91.035 79.6654 91.2139 78.8557 91.5719 78.1881C91.9298 77.5205 92.4156 77.012 93.0293 76.6625C93.6429 76.3103 94.3332 76.1341 95.1003 76.1341C95.606 76.1341 96.0747 76.2051 96.5065 76.3472C96.9412 76.4892 97.3261 76.6966 97.6614 76.9693C97.9966 77.2392 98.2693 77.5702 98.4796 77.9622C98.6926 78.3543 98.829 78.8032 98.8886 79.3088ZM111.066 78.7634C111.032 78.4196 110.886 78.1526 110.627 77.9622C110.369 77.7719 110.018 77.6767 109.575 77.6767C109.274 77.6767 109.019 77.7193 108.812 77.8046C108.605 77.887 108.445 78.002 108.335 78.1497C108.227 78.2975 108.173 78.4651 108.173 78.6526C108.167 78.8088 108.2 78.9452 108.271 79.0617C108.345 79.1782 108.445 79.279 108.573 79.3642C108.701 79.4466 108.849 79.5191 109.016 79.5816C109.184 79.6412 109.363 79.6924 109.553 79.735L110.337 79.9225C110.718 80.0077 111.068 80.1213 111.386 80.2634C111.704 80.4054 111.98 80.5801 112.212 80.7875C112.445 80.9949 112.626 81.2392 112.754 81.5205C112.884 81.8017 112.951 82.1242 112.954 82.4878C112.951 83.0219 112.815 83.485 112.545 83.877C112.278 84.2662 111.891 84.5688 111.386 84.7847C110.883 84.9978 110.276 85.1043 109.566 85.1043C108.862 85.1043 108.248 84.9963 107.725 84.7804C107.205 84.5645 106.799 84.2449 106.507 83.8216C106.217 83.3955 106.065 82.8685 106.051 82.2407H107.836C107.856 82.5333 107.94 82.7776 108.087 82.9736C108.238 83.1668 108.438 83.3131 108.688 83.4125C108.941 83.5091 109.227 83.5574 109.545 83.5574C109.857 83.5574 110.129 83.512 110.359 83.4211C110.592 83.3301 110.772 83.2037 110.9 83.0418C111.028 82.8799 111.092 82.6938 111.092 82.4836C111.092 82.2875 111.034 82.1228 110.917 81.9892C110.803 81.8557 110.636 81.7421 110.414 81.6483C110.195 81.5546 109.927 81.4693 109.609 81.3926L108.659 81.154C107.923 80.975 107.342 80.6952 106.916 80.3145C106.489 79.9338 106.278 79.4211 106.281 78.7762C106.278 78.2478 106.418 77.7861 106.703 77.3912C106.989 76.9963 107.383 76.6881 107.883 76.4665C108.383 76.2449 108.951 76.1341 109.587 76.1341C110.235 76.1341 110.801 76.2449 111.284 76.4665C111.769 76.6881 112.147 76.9963 112.417 77.3912C112.687 77.7861 112.826 78.2435 112.835 78.7634H111.066Z" fill="white"/>
<path fill-rule="evenodd" clip-rule="evenodd" d="M120 28.3116H95.6303V19.5035H92.7705L64.1729 35.2322L63.5438 35.7643V36.3934V37.0226V38.1838L64.1729 38.91L92.7705 54.1066H95.6303V45.2985H119.541C115.399 60.5258 101.474 71.7227 84.9348 71.7227C65.1291 71.7227 49.0734 55.667 49.0734 35.8613C49.0734 16.0557 65.1291 0 84.9348 0C102.151 0 116.533 12.1312 120 28.3116Z" fill="#32CD32"/>
<path fill-rule="evenodd" clip-rule="evenodd" d="M43.4438 38.7243C41.5105 35.8243 38.5938 33.9076 34.6938 32.9743C37.3938 31.6743 39.4272 29.7077 40.7938 27.0743C42.1605 24.441 42.8438 21.6743 42.8438 18.7743C42.8438 6.37432 35.0105 0.174316 19.3438 0.174316H0.743835V10.0665H14V10.0743H19.3438C22.6105 10.0743 25.2772 10.7576 27.3438 12.1243C29.4105 13.491 30.4438 15.841 30.4438 19.1743C30.4438 20.8076 30.1438 22.4076 29.5438 23.9743C28.9438 25.5077 27.9772 26.791 26.6438 27.8243C25.3105 28.8577 23.5772 29.3743 21.4438 29.3743H14V29.3873H0.743835V69.8743H19.6438C28.7438 69.8743 35.4605 68.1243 39.7938 64.6243C44.1605 61.1243 46.3438 56.1743 46.3438 49.7743C46.3438 45.2743 45.3772 41.591 43.4438 38.7243ZM29.7938 57.5243C27.5605 59.0243 24.6438 59.7743 21.0438 59.7743H13.3438V38.6743H20.4438C24.2772 38.6743 27.3438 39.391 29.6438 40.8243C31.9772 42.2243 33.1438 44.9743 33.1438 49.0743C33.1438 53.1743 32.0272 55.991 29.7938 57.5243Z" fill="#32CD32"/>
</svg>
