<svg width="70" height="70" viewBox="0 0 70 70" fill="none" xmlns="http://www.w3.org/2000/svg">
<path d="M11.1234 41.5624C10.9492 41.5624 10.7776 41.5212 10.6224 41.4421L2.28589 37.148C2.02886 37.0157 1.83464 36.7871 1.7457 36.512C1.65675 36.237 1.6803 35.9379 1.8112 35.6802L11.6046 16.3361C11.6696 16.2077 11.7594 16.0933 11.8687 15.9997C11.978 15.906 12.1047 15.8348 12.2416 15.7902C12.3785 15.7456 12.5228 15.7284 12.6663 15.7397C12.8098 15.751 12.9497 15.7905 13.0779 15.856L21.0087 19.9029C21.2633 20.0324 21.4571 20.2565 21.5487 20.5271C21.6403 20.7977 21.6223 21.0934 21.4987 21.351L12.1099 40.9379C12.0465 41.0696 11.9574 41.1873 11.8479 41.2842C11.7384 41.3811 11.6107 41.4552 11.4723 41.5022C11.3599 41.5406 11.2421 41.5609 11.1234 41.5624ZM4.25354 35.6999L10.6235 38.9811L19.0651 21.3718L13.0604 18.3093L4.25354 35.6999Z" fill="#32CD32"/>
<path d="M22.4547 26.3419C22.2665 26.3418 22.0815 26.2932 21.9176 26.2008L18.7392 24.4103C18.614 24.3399 18.504 24.2455 18.4153 24.1325C18.3266 24.0195 18.261 23.8901 18.2223 23.7518C18.1836 23.6135 18.1726 23.4689 18.1897 23.3262C18.2069 23.1836 18.252 23.0458 18.3225 22.9206C18.3929 22.7955 18.4874 22.6854 18.6003 22.5967C18.7133 22.508 18.8427 22.4424 18.981 22.4038C19.1194 22.3651 19.264 22.354 19.4066 22.3712C19.5492 22.3884 19.687 22.4335 19.8122 22.5039L22.4372 23.9816C23.462 23.3603 25.6801 22.0227 27.0998 21.2209C29.4175 19.9084 31.0494 20.0889 32.923 21.8641C33.1281 22.0648 33.2461 22.3381 33.2516 22.625C33.257 22.9119 33.1495 23.1895 32.9522 23.3979C32.7549 23.6063 32.4835 23.7287 32.1967 23.7389C31.9099 23.7491 31.6306 23.6461 31.4191 23.4522C30.2553 22.3497 29.6494 22.2928 28.1761 23.1241C26.3517 24.1555 23.0606 26.1614 23.0267 26.1866C22.854 26.29 22.656 26.3438 22.4547 26.3419Z" fill="#32CD32"/>
<path d="M51.228 45.3718C50.431 45.3923 49.6447 45.1847 48.9617 44.7735C47.9555 44.102 43.528 39.7598 42.6508 38.8968C42.4574 38.691 42.3511 38.4183 42.3542 38.1359C42.3573 37.8535 42.4696 37.5832 42.6674 37.3817C42.8653 37.1801 43.1335 37.063 43.4158 37.0547C43.6981 37.0463 43.9727 37.1476 44.182 37.3371C46.1508 39.2807 49.5283 42.5237 50.1725 42.9535C50.5877 43.1454 51.0469 43.2219 51.5019 43.1749C51.9569 43.1279 52.3908 42.9593 52.7581 42.6867C52.9301 42.5375 53.0672 42.3524 53.1599 42.1445C53.2525 41.9365 53.2983 41.7108 53.2942 41.4832C53.29 41.2556 53.2359 41.0316 53.1357 40.8272C53.0355 40.6228 52.8917 40.4429 52.7144 40.3001C51.5966 39.0423 46.9525 34.5743 45.9331 33.5943C42.3762 32.2905 38.9268 30.7099 35.6169 28.8671L34.4662 29.6196C34.2079 30.8188 33.5187 31.8816 32.5292 32.6067C32.1819 32.8803 31.7787 33.0742 31.3482 33.1747C30.9176 33.2753 30.4702 33.28 30.0376 33.1885C29.5127 33.1231 29.0073 32.9489 28.5536 32.6769C28.0999 32.405 27.7079 32.0413 27.4028 31.6092C26.8212 30.3665 26.7559 28.9438 27.2212 27.6531C28.1542 23.919 29.668 22.9576 31.7625 21.6276L32.223 21.3334C34.5308 19.8514 36.5116 19.0617 38.6859 20.0406C40.0378 20.6498 44.8361 22.5081 46.1989 23.0353L50.7664 21.5379C51.04 21.4547 51.3353 21.482 51.5891 21.6139C51.8428 21.7458 52.0348 21.9718 52.1239 22.2436C52.213 22.5153 52.1922 22.8112 52.0658 23.0677C51.9394 23.3242 51.7176 23.5211 51.4478 23.616L46.5095 25.2348C46.2704 25.3128 46.0118 25.3066 45.7767 25.2173C45.5175 25.1167 39.4166 22.7695 37.7923 22.0367C36.8178 21.5992 35.7886 21.644 33.4086 23.1731L32.9383 23.4739C31.0275 24.6868 30.0683 25.2971 29.3464 28.1835C28.9767 29.6623 29.1473 30.2617 29.2819 30.4804C29.4547 30.7692 29.855 30.8862 30.4927 31.0459C30.6295 31.0689 30.7698 31.0613 30.9034 31.0234C31.0369 30.9856 31.1604 30.9186 31.2648 30.8271C31.5733 30.5947 31.831 30.3016 32.0219 29.9658C32.2128 29.6301 32.333 29.2588 32.375 28.8748C32.3893 28.7099 32.4408 28.5504 32.5257 28.4083C32.6106 28.2662 32.7266 28.1452 32.865 28.0545L34.9705 26.6775C35.1364 26.5695 35.3285 26.5087 35.5264 26.5013C35.7242 26.494 35.9203 26.5405 36.0937 26.6359C36.1681 26.6764 43.5422 30.709 46.772 31.5578C46.9516 31.6057 47.1163 31.6978 47.2511 31.8257C47.4873 32.0521 53.048 37.3765 54.3539 38.8498C54.7158 39.2001 55.0027 39.6202 55.1973 40.0847C55.3919 40.5492 55.4902 41.0484 55.4861 41.552C55.482 42.0556 55.3757 42.5531 55.1735 43.0144C54.9714 43.4757 54.6777 43.8911 54.3101 44.2354C53.4686 44.9989 52.3637 45.4063 51.228 45.3718Z" fill="#32CD32"/>
<path d="M53.5357 40.6676C53.2851 40.6674 53.0421 40.5812 52.8475 40.4233C52.6528 40.2654 52.5183 40.0455 52.4664 39.8003C52.4146 39.5551 52.4485 39.2995 52.5625 39.0763C52.6765 38.8531 52.8637 38.6759 53.0928 38.5742L56.9296 36.8745C57.0615 36.8122 57.2045 36.777 57.3502 36.7708C57.496 36.7646 57.6414 36.7876 57.7781 36.8385C57.9148 36.8893 58.04 36.967 58.1462 37.067C58.2524 37.1669 58.3375 37.2871 58.3966 37.4204C58.4557 37.5538 58.4875 37.6976 58.4902 37.8434C58.4929 37.9892 58.4664 38.1341 58.4123 38.2695C58.3581 38.405 58.2774 38.5282 58.175 38.632C58.0725 38.7358 57.9503 38.818 57.8156 38.8739L53.9776 40.5779C53.8381 40.6382 53.6876 40.6687 53.5357 40.6676Z" fill="#32CD32"/>
<path d="M58.5528 41.5624C58.3348 41.5623 58.1218 41.4971 57.9412 41.3751C57.7605 41.2531 57.6204 41.0799 57.5389 40.8777L49.2833 20.3962C49.2281 20.2596 49.2011 20.1132 49.2038 19.966C49.2066 19.8187 49.2391 19.6735 49.2993 19.539C49.3596 19.4046 49.4464 19.2837 49.5545 19.1837C49.6627 19.0836 49.7899 19.0065 49.9286 18.9568L58.7508 15.8002C59.0176 15.7048 59.3112 15.7166 59.5695 15.8333C59.8278 15.95 60.0307 16.1625 60.1354 16.4259L68.2292 36.7412C68.2822 36.8755 68.308 37.0189 68.3052 37.1633C68.3025 37.3076 68.2711 37.45 68.2131 37.5822C68.155 37.7144 68.0714 37.8337 67.9669 37.9334C67.8625 38.0331 67.7394 38.1112 67.6047 38.163L58.9444 41.4859C58.8196 41.5352 58.6869 41.5611 58.5528 41.5624ZM51.7344 20.6324L59.162 39.0588L65.7836 36.5213L58.4937 18.2152L51.7344 20.6324ZM46.3006 48.6893C45.399 48.7163 44.5185 48.4134 43.8244 47.8373C42.3598 46.5357 38.5951 42.7732 38.4354 42.6135C38.2362 42.4072 38.126 42.1309 38.1285 41.8442C38.131 41.5574 38.246 41.2831 38.4488 41.0803C38.6516 40.8775 38.9259 40.7625 39.2127 40.76C39.4994 40.7575 39.7757 40.8677 39.982 41.0669C40.0203 41.1052 43.8615 44.9443 45.2769 46.2076C45.5702 46.3863 45.9024 46.4916 46.2451 46.5144C46.5879 46.5373 46.9311 46.477 47.2456 46.3388C47.7592 46.1636 48.2148 45.8508 48.5628 45.4344C48.9107 45.0179 49.1376 44.514 49.2187 43.9774C49.2431 43.8359 49.2952 43.7005 49.3719 43.5791C49.4487 43.4576 49.5486 43.3525 49.6659 43.2697C49.7833 43.1869 49.9158 43.128 50.0559 43.0964C50.196 43.0647 50.341 43.061 50.4826 43.0855C50.6241 43.1099 50.7595 43.1619 50.8809 43.2387C51.0023 43.3154 51.1075 43.4153 51.1903 43.5326C51.2731 43.65 51.332 43.7825 51.3636 43.9226C51.3952 44.0628 51.3989 44.2077 51.3745 44.3493C51.2258 45.2681 50.8311 46.1296 50.2321 46.8421C49.6332 47.5546 48.8525 48.0917 47.9729 48.3962C47.4358 48.5868 46.8705 48.6859 46.3006 48.6893Z" fill="#32CD32"/>
<path d="M41.2102 51.3406C40.3105 51.379 39.4312 51.0651 38.7591 50.4656L34.8741 46.5806L36.4218 45.033L40.3068 48.918C40.5472 49.053 40.8133 49.136 41.0878 49.1616C41.3623 49.1872 41.6392 49.1549 41.9004 49.0667C42.4021 48.9435 42.8615 48.6878 43.2306 48.3262C43.5996 47.9647 43.8647 47.5106 43.9982 47.0116C44.0387 46.8723 44.1064 46.7425 44.1974 46.6297C44.2885 46.5169 44.4011 46.4233 44.5286 46.3544C44.6562 46.2855 44.7962 46.2426 44.9405 46.2283C45.0847 46.214 45.2304 46.2285 45.369 46.271C45.5077 46.3134 45.6364 46.3831 45.7479 46.4758C45.8594 46.5685 45.9513 46.6824 46.0183 46.811C46.0854 46.9395 46.1262 47.0801 46.1384 47.2246C46.1506 47.3691 46.134 47.5145 46.0895 47.6525C45.7852 48.7124 45.1451 49.645 44.2655 50.3101C43.3858 50.9752 42.313 51.3368 41.2102 51.3406Z" fill="#32CD32"/>
<path d="M37.0408 54.262C36.1467 54.281 35.2723 53.9978 34.5591 53.4581C33.5738 52.6693 32.584 51.8861 31.5896 51.1087C31.474 51.0212 31.377 50.9115 31.3042 50.7861C31.2314 50.6607 31.1843 50.5221 31.1656 50.3784C31.1468 50.2346 31.1568 50.0885 31.1951 49.9487C31.2333 49.8088 31.2989 49.6779 31.3882 49.5637C31.4774 49.4494 31.5885 49.3541 31.7149 49.2831C31.8414 49.2122 31.9806 49.1671 32.1247 49.1504C32.2687 49.1338 32.4146 49.146 32.5539 49.1862C32.6932 49.2265 32.823 49.2941 32.936 49.385C32.936 49.385 34.3021 50.4514 35.9263 51.7508C36.2723 51.9567 36.6659 52.0693 37.0685 52.0776C37.4711 52.0858 37.869 51.9894 38.2232 51.7978C38.5398 51.6616 38.8078 51.4327 38.9917 51.1412C39.1757 50.8497 39.2669 50.5093 39.2535 50.1648C39.2446 49.8749 39.3513 49.5933 39.5501 49.3821C39.7489 49.1708 40.0234 49.0471 40.3133 49.0383C40.6024 49.0331 40.882 49.1412 41.0925 49.3395C41.303 49.5377 41.4277 49.8103 41.4399 50.0992C41.4657 50.8611 41.2671 51.6137 40.8689 52.2638C40.4707 52.9138 39.8903 53.4325 39.1999 53.7556C38.5286 54.0879 37.7898 54.2612 37.0408 54.262Z" fill="#32CD32"/>
<path d="M28.8443 53.7555C28.4888 53.7542 28.137 53.6836 27.8085 53.5477C26.9166 53.11 26.1814 52.4081 25.703 51.5374C24.9268 51.688 24.1224 51.5671 23.4247 51.195C22.8395 50.8114 22.3364 50.3153 21.9447 49.7354C21.553 49.1556 21.2806 48.5036 21.1432 47.8175C21.0855 47.5382 21.1393 47.2473 21.293 47.0071C22.1822 45.6202 23.5232 43.4644 23.7233 43.0149C23.9034 42.6562 24.1589 42.3408 24.4723 42.0901C24.7857 41.8393 25.1495 41.6593 25.539 41.5624C26.0687 41.4235 26.6227 41.4049 27.1606 41.5079C27.6984 41.6108 28.2064 41.8327 28.6474 42.1574C29.1361 42.4809 29.5286 42.9302 29.7834 43.458C30.0383 43.9858 30.1461 44.5725 30.0955 45.1564C30.6158 45.1788 31.1252 45.3126 31.5893 45.5486C32.0535 45.7847 32.4616 46.1175 32.7861 46.5247C33.1014 47.0174 33.3026 47.5742 33.3751 48.1546C33.4476 48.735 33.3895 49.3242 33.2051 49.8792C32.6314 51.4804 31.4535 52.7933 29.9238 53.5367C29.5822 53.6811 29.2151 53.7555 28.8443 53.7555ZM27.5449 50.3419C27.8883 50.9227 28.5019 51.7561 29.0761 51.5166C30.0295 51.02 30.7635 50.1859 31.1346 49.1771C31.2076 48.9538 31.2355 48.7183 31.2168 48.4841C31.198 48.25 31.1329 48.0219 31.0252 47.8131C30.8588 47.6502 30.6613 47.5224 30.4444 47.4375C30.2276 47.3525 29.9958 47.3122 29.763 47.3188L27.5449 50.3419ZM23.3985 47.7716C23.5725 48.3793 23.9497 48.909 24.4671 49.2722C24.6286 49.3551 24.8054 49.404 24.9866 49.4158C25.1677 49.4277 25.3494 49.4022 25.5204 49.3411L27.8555 45.338C27.9483 45.0906 27.9543 44.819 27.8724 44.5678C27.7905 44.3166 27.6257 44.1007 27.4049 43.9555C27.2369 43.8231 27.0431 43.7273 26.8359 43.6744C26.6287 43.6215 26.4127 43.6125 26.2018 43.6481C26.0156 43.6788 25.8456 43.7727 25.7205 43.9139C25.4318 44.5538 24.0427 46.7588 23.3985 47.7716Z" fill="#32CD32"/>
<path d="M20.4848 49.48C20.2256 49.4807 19.9677 49.4439 19.7192 49.3706C17.8456 48.8073 17.1117 46.3814 17.034 46.1068C16.9948 45.9676 16.9836 45.8219 17.001 45.6783C17.0185 45.5347 17.0643 45.3959 17.1357 45.2701C18.0654 43.6553 19.0936 42.0992 20.2146 40.6108C20.7774 39.8786 21.5928 39.3825 22.5017 39.2193C23.4106 39.0561 24.3476 39.2375 25.13 39.7281C26.1625 40.4445 26.9193 42.0031 25.6528 44.0397C25.577 44.1618 25.4779 44.2677 25.3612 44.3515C25.2445 44.4353 25.1124 44.4953 24.9725 44.5281C24.8326 44.5608 24.6876 44.5657 24.5458 44.5424C24.404 44.5191 24.2682 44.4682 24.1461 44.3924C24.024 44.3166 23.9181 44.2176 23.8343 44.1008C23.7505 43.9841 23.6905 43.852 23.6577 43.7121C23.625 43.5722 23.6201 43.4272 23.6434 43.2855C23.6666 43.1437 23.7176 43.0078 23.7934 42.8858C24.0745 42.4318 24.3184 41.8292 23.882 41.5262C23.563 41.352 23.192 41.2983 22.8368 41.3751C22.4816 41.4518 22.1658 41.6537 21.9471 41.944C20.9863 43.2208 20.0972 44.5499 19.2839 45.9253C19.5234 46.4973 19.9314 47.1525 20.3481 47.2761C20.7167 47.3854 21.2231 47.007 21.4976 46.7729C21.7172 46.5832 22.0032 46.4885 22.2926 46.5096C22.582 46.5308 22.8512 46.666 23.0409 46.8856C23.2306 47.1052 23.3253 47.3911 23.3042 47.6806C23.2831 47.97 23.1478 48.2392 22.9282 48.4289C22.2706 49.0676 21.4008 49.4418 20.4848 49.48Z" fill="#32CD32"/>
<path d="M18.084 46.8999C17.9638 46.8997 17.8444 46.8798 17.7307 46.8408C17.5458 46.7785 13.1862 45.2549 13.1862 41.8402C13.186 41.7255 13.2038 41.6115 13.2387 41.5022C13.6344 40.4131 14.1764 39.3828 14.8498 38.4397C15.3508 37.8409 16.0429 37.4331 16.8095 37.2849C17.5761 37.1367 18.3703 37.2571 19.0585 37.626C19.7063 37.913 20.2229 38.4326 20.5064 39.0819C20.7899 39.7313 20.8196 40.4634 20.5898 41.1336C19.8744 43.4371 19.1405 46.0697 19.1329 46.0971C19.0686 46.327 18.9309 46.5297 18.7407 46.674C18.5506 46.8184 18.3184 46.8966 18.0796 46.8966L18.084 46.8999ZM15.3824 42.0097C15.4918 43.0335 16.5396 43.8122 17.3796 44.2793C17.6651 43.2818 18.0883 41.8303 18.504 40.4883C18.5421 40.4031 18.5616 40.3107 18.5612 40.2173C18.5608 40.1239 18.5404 40.0316 18.5015 39.9467C18.4626 39.8618 18.406 39.7862 18.3355 39.7249C18.265 39.6637 18.1822 39.6182 18.0927 39.5914C17.8667 39.464 17.6081 39.4063 17.3493 39.4258C17.0906 39.4452 16.8435 39.541 16.6391 39.7008C16.132 40.4191 15.7103 41.1939 15.3824 42.0097Z" fill="#32CD32"/>
<path d="M15.1779 41.0473C14.9577 41.0471 14.7427 40.9803 14.561 40.8559L11.6921 38.8872C11.4526 38.7233 11.2881 38.4709 11.2347 38.1857C11.1812 37.9005 11.2433 37.6058 11.4072 37.3663C11.5711 37.1268 11.8234 36.9623 12.1086 36.9089C12.3938 36.8554 12.6886 36.9175 12.928 37.0814L15.7969 39.0501C15.9902 39.182 16.1361 39.3723 16.2131 39.5932C16.2902 39.8141 16.2944 40.0539 16.2251 40.2774C16.1559 40.5008 16.0168 40.6962 15.8283 40.8348C15.6398 40.9734 15.4118 41.0479 15.1779 41.0473Z" fill="#32CD32"/>
</svg>
