<svg width="60" height="60" viewBox="0 0 60 60" fill="none" xmlns="http://www.w3.org/2000/svg">
<path d="M6.6571 41.3474V56.2651C6.6571 56.9029 7.17374 57.4189 7.81095 57.4189H16.2496C16.8393 57.4189 17.3072 56.9705 17.3764 56.3989C20.1986 57.2226 26.1501 58.8455 29.2563 58.8455C29.4726 58.8455 29.6754 58.8376 29.8619 58.8207C35.505 58.3204 50.0965 50.8035 50.6413 50.5195C52.2153 49.8418 53.3428 48.8052 53.3428 46.8755C53.3428 44.0428 50.2124 42.3309 48.4485 43.2393L41.4612 46.8676C40.4073 47.2162 37.4216 47.5135 37.0805 47.5183C36.906 47.2784 36.6843 47.0597 36.4075 46.8754C27.2316 41.7629 27.0814 41.6009 26.6635 41.6009H17.4034V41.3473C17.4034 40.7096 16.8868 40.1935 16.2496 40.1935H7.81095C7.17375 40.1935 6.6571 40.7096 6.6571 41.3474ZM17.4034 43.9086H26.3621L35.2204 48.8721C35.2002 49.1967 34.8418 50.0891 34.5551 50.5319L27.388 48.4473C26.7734 48.2671 26.1356 48.6197 25.9581 49.2327C25.7801 49.8446 26.1316 50.4846 26.7435 50.6626L33.9646 52.7585C34.2328 52.8655 34.5207 52.9196 34.821 52.9196C36.166 52.9196 37.013 51.0444 37.3548 49.8133C37.6946 49.7973 40.9673 49.4745 42.2844 49.0254C42.412 48.9837 43.3568 48.4798 49.3505 45.3712C50.2451 45.269 51.0351 45.9708 51.0351 46.8755C51.0351 47.8928 50.2989 48.1545 49.6548 48.4338C49.5077 48.5105 34.852 56.0623 29.658 56.522C27.2385 56.7437 20.6151 54.9582 17.4034 54.0015L17.4034 43.9086ZM8.9648 42.5012H15.0957V55.1112H8.9648V42.5012ZM20.5472 18.6761C20.5472 21.2813 21.3844 23.7467 22.9687 25.8065C24.4871 27.7807 25.6882 31.7346 26.2055 34.777C26.2995 35.3314 26.7801 35.737 27.343 35.737H37.1642C37.7298 35.737 38.2115 35.3268 38.3028 34.7691C38.7704 31.9092 39.8589 27.8922 41.3886 25.9823C43.3824 23.492 44.2585 20.3595 43.8557 17.1628C43.1909 11.8848 38.8645 7.63117 33.5697 7.0486C26.5277 6.28914 20.5472 11.7902 20.5472 18.6761ZM33.3173 9.34277C37.5636 9.80927 41.033 13.2201 41.566 17.4512C41.8905 20.0237 41.1874 22.541 39.5868 24.54C37.6583 26.9479 36.6267 31.2163 36.1985 33.4293H33.4029V24.3619L35.6368 22.1286C36.0875 21.6779 36.0875 20.9477 35.6368 20.497C35.1861 20.0463 34.4559 20.0463 34.0052 20.497L32.2491 22.2525L30.493 20.497C30.0422 20.0463 29.3121 20.0463 28.8614 20.497C28.4106 20.9477 28.4106 21.6779 28.8614 22.1286L31.0952 24.3619V33.4293H28.3013C27.6957 30.4376 26.4906 26.6009 24.7975 24.4002C23.5265 22.7472 22.8549 20.7674 22.8549 18.6761C22.8549 13.1446 27.6652 8.72528 33.3173 9.34277ZM33.4029 5.37981V2.30814C33.4029 1.67038 32.8863 1.1543 32.2491 1.1543C31.6118 1.1543 31.0952 1.67038 31.0952 2.30814V5.37981C31.0952 6.01757 31.6118 6.53365 32.2491 6.53365C32.8863 6.53365 33.4029 6.01757 33.4029 5.37981Z" fill="#32CD32"/>
<path d="M21.6375 6.22623C21.1867 5.7755 20.4566 5.7755 20.0059 6.22623C19.5552 6.67696 19.5551 7.40712 20.0059 7.85784L21.9282 9.78017C22.3789 10.2309 23.1091 10.2309 23.5598 9.78017C24.0105 9.32944 24.0105 8.59927 23.5598 8.14856L21.6375 6.22623ZM42.5701 27.1588C42.1194 26.7081 41.3892 26.7081 40.9385 27.1588C40.4878 27.6096 40.4878 28.3397 40.9385 28.7905L42.8608 30.7128C43.3115 31.1635 44.0417 31.1635 44.4924 30.7128C44.9431 30.2621 44.9431 29.5319 44.4924 29.0812L42.5701 27.1588ZM16.0885 17.3151C15.4513 17.3151 14.9347 17.8312 14.9347 18.4689C14.9347 19.1067 15.4513 19.6228 16.0885 19.6228H19.1602C19.7974 19.6228 20.3141 19.1067 20.3141 18.4689C20.3141 17.8312 19.7974 17.3151 19.1602 17.3151H16.0885ZM48.4103 19.6228C49.0475 19.6228 49.5642 19.1067 49.5642 18.4689C49.5642 17.8312 49.0475 17.3151 48.4103 17.3151H45.3387C44.7014 17.3151 44.1848 17.8312 44.1848 18.4689C44.1848 19.1067 44.7014 19.6228 45.3387 19.6228H48.4103ZM21.9282 27.1588L20.0059 29.0812C19.5551 29.5319 19.5551 30.2621 20.0059 30.7128C20.4566 31.1635 21.1867 31.1635 21.6375 30.7128L23.5598 28.7905C24.0105 28.3397 24.0105 27.6096 23.5598 27.1588C23.1091 26.7081 22.3789 26.7081 21.9282 27.1588ZM42.8608 6.22623L40.9385 8.14856C40.4878 8.59929 40.4878 9.32945 40.9385 9.78017C41.3892 10.2309 42.1194 10.2309 42.5701 9.78017L44.4924 7.85784C44.9431 7.40711 44.9431 6.67694 44.4924 6.22623C44.0417 5.77551 43.3115 5.7755 42.8608 6.22623ZM28.9724 37.584C28.3352 37.584 27.8186 38.1001 27.8186 38.7379C27.8186 39.3756 28.3352 39.8917 28.9724 39.8917H35.5259C36.1631 39.8917 36.6797 39.3756 36.6797 38.7379C36.6797 38.1001 36.1631 37.584 35.5259 37.584H28.9724Z" fill="#32CD32"/>
</svg>
