<svg width="30" height="30" viewBox="0 0 30 30" fill="none" xmlns="http://www.w3.org/2000/svg">
<path d="M21.25 26.25L17.8125 22.5L19.2625 21.05L21.25 23.0375L25.7375 18.55L27.1875 20.3125M16 26.25H6.25C4.8625 26.25 3.75 25.1375 3.75 23.75V6.25C3.75 4.8625 4.8625 3.75 6.25 3.75H23.75C25.1375 3.75 26.25 4.8625 26.25 6.25V16C25.4875 15.5625 24.65 15.25 23.75 15.1V6.25H6.25V23.75H15.1C15.25 24.65 15.5625 25.4875 16 26.25ZM15 21.25H8.75V18.75H15M18.35 16.25H8.75V13.75H21.25V15.1C20.1875 15.275 19.2125 15.675 18.35 16.25ZM21.25 11.25H8.75V8.75H21.25" fill="#32CD32"/>
</svg>
