<svg width="30" height="30" viewBox="0 0 30 30" fill="none" xmlns="http://www.w3.org/2000/svg">
<path d="M11.25 1.875C10.2554 1.875 9.30161 2.27009 8.59835 2.97335C7.89509 3.67661 7.5 4.63044 7.5 5.625V9.76312C8.11295 9.58984 8.74063 9.47372 9.375 9.41625V5.625C9.375 5.12772 9.57254 4.65081 9.92418 4.29917C10.2758 3.94754 10.7527 3.75 11.25 3.75H16.875V8.4375C16.875 9.18342 17.1713 9.89879 17.6988 10.4262C18.2262 10.9537 18.9416 11.25 19.6875 11.25H24.375V24.375C24.375 24.8723 24.1775 25.3492 23.8258 25.7008C23.4742 26.0525 22.9973 26.25 22.5 26.25H18.2681C17.6802 26.9629 16.9991 27.5936 16.2431 28.125H22.5C23.4946 28.125 24.4484 27.7299 25.1516 27.0266C25.8549 26.3234 26.25 25.3696 26.25 24.375V10.1513C26.2493 9.40558 25.9526 8.69069 25.425 8.16375L19.9612 2.69813C19.434 2.17122 18.7192 1.87516 17.9738 1.875H11.25ZM23.9869 9.375H19.6875C19.4389 9.375 19.2004 9.27623 19.0246 9.10041C18.8488 8.9246 18.75 8.68614 18.75 8.4375V4.13813L23.9869 9.375ZM18.75 19.6875C18.75 21.9253 17.8611 24.0714 16.2787 25.6537C14.6964 27.2361 12.5503 28.125 10.3125 28.125C8.07474 28.125 5.92862 27.2361 4.34629 25.6537C2.76395 24.0714 1.875 21.9253 1.875 19.6875C1.875 17.4497 2.76395 15.3036 4.34629 13.7213C5.92862 12.1389 8.07474 11.25 10.3125 11.25C12.5503 11.25 14.6964 12.1389 16.2787 13.7213C17.8611 15.3036 18.75 17.4497 18.75 19.6875ZM14.7263 16.2112C14.6392 16.1239 14.5357 16.0547 14.4218 16.0074C14.3079 15.9602 14.1858 15.9358 14.0625 15.9358C13.9392 15.9358 13.8171 15.9602 13.7032 16.0074C13.5893 16.0547 13.4858 16.1239 13.3987 16.2112L8.4375 21.1744L7.22625 19.9612C7.13909 19.8741 7.03561 19.8049 6.92172 19.7578C6.80783 19.7106 6.68577 19.6863 6.5625 19.6863C6.43923 19.6863 6.31717 19.7106 6.20328 19.7578C6.08939 19.8049 5.98591 19.8741 5.89875 19.9612C5.81158 20.0484 5.74244 20.1519 5.69527 20.2658C5.6481 20.3797 5.62382 20.5017 5.62382 20.625C5.62382 20.7483 5.6481 20.8703 5.69527 20.9842C5.74244 21.0981 5.81158 21.2016 5.89875 21.2888L7.77375 23.1638C7.86084 23.2511 7.96429 23.3203 8.07819 23.3676C8.19208 23.4148 8.31419 23.4392 8.4375 23.4392C8.56081 23.4392 8.68292 23.4148 8.79681 23.3676C8.91071 23.3203 9.01416 23.2511 9.10125 23.1638L14.7263 17.5388C14.8136 17.4517 14.8828 17.3482 14.9301 17.2343C14.9773 17.1204 15.0017 16.9983 15.0017 16.875C15.0017 16.7517 14.9773 16.6296 14.9301 16.5157C14.8828 16.4018 14.8136 16.2983 14.7263 16.2112Z" fill="#32CD32"/>
</svg>
