<svg width="30" height="30" viewBox="0 0 30 30" fill="none" xmlns="http://www.w3.org/2000/svg">
<path fill-rule="evenodd" clip-rule="evenodd" d="M16.9414 3.28066C16.9414 2.9965 17.0543 2.72397 17.2552 2.52304C17.4562 2.32211 17.7287 2.20923 18.0129 2.20923H21.495C21.7792 2.20923 22.0517 2.32211 22.2526 2.52304C22.4535 2.72397 22.5664 2.9965 22.5664 3.28066V6.29566H25.5793C25.8634 6.29566 26.136 6.40854 26.3369 6.60947C26.5378 6.8104 26.6507 7.08293 26.6507 7.36709V10.8492C26.6507 11.1334 26.5378 11.4059 26.3369 11.6068C26.136 11.8078 25.8634 11.9207 25.5793 11.9207H22.5664V14.9335C22.5664 15.2177 22.4535 15.4902 22.2526 15.6911C22.0517 15.8921 21.7792 16.0049 21.495 16.0049H18.0129C17.7287 16.0049 17.4562 15.8921 17.2552 15.6911C17.0543 15.4902 16.9414 15.2177 16.9414 14.9335V11.9207H13.9286C13.6444 11.9207 13.3719 11.8078 13.171 11.6068C12.97 11.4059 12.8571 11.1334 12.8571 10.8492V7.36709C12.8571 7.08293 12.97 6.8104 13.171 6.60947C13.3719 6.40854 13.6444 6.29566 13.9286 6.29566H16.9414V3.28066ZM3.94929 14.9999H0V23.5714L3.91714 27.4885C4.71314 28.2848 5.65822 28.9164 6.69838 29.3473C7.73853 29.7782 8.8534 30 9.97929 29.9999H22.5C23.3525 29.9999 24.17 29.6613 24.7728 29.0585C25.3756 28.4557 25.7143 27.6381 25.7143 26.7857C25.7143 25.9332 25.3756 25.1156 24.7728 24.5128C24.17 23.91 23.3525 23.5714 22.5 23.5714H16.5493C16.3265 24.3226 15.9123 25.003 15.3474 25.5459C14.7824 26.0888 14.0861 26.4756 13.3266 26.6684C12.5671 26.8611 11.7706 26.8531 11.0151 26.6453C10.2597 26.4375 9.57116 26.0369 9.01714 25.4828L5.91 22.3757C5.78562 22.2513 5.68696 22.1036 5.61964 21.9411C5.55233 21.7786 5.51768 21.6044 5.51768 21.4285C5.51768 21.2526 5.55233 21.0784 5.61964 20.9159C5.68696 20.7534 5.78562 20.6058 5.91 20.4814C6.03438 20.357 6.18204 20.2583 6.34455 20.191C6.50706 20.1237 6.68124 20.0891 6.85714 20.0891C7.03304 20.0891 7.20722 20.1237 7.36973 20.191C7.53224 20.2583 7.6799 20.357 7.80429 20.4814L10.9114 23.5885C11.2387 23.9151 11.6768 24.1067 12.1388 24.1253C12.6008 24.144 13.0529 23.9883 13.4054 23.6892C13.7579 23.39 13.9852 22.9693 14.042 22.5105C14.0988 22.0516 13.9811 21.5882 13.7121 21.2121L10.0114 17.5114C9.21543 16.7151 8.27035 16.0835 7.2302 15.6526C6.19004 15.2217 5.07517 14.9999 3.94929 14.9999Z" fill="#32CD32"/>
</svg>
