<svg width="60" height="60" viewBox="0 0 60 60" fill="none" xmlns="http://www.w3.org/2000/svg">
<path d="M60 10.1258L51.1922 8.80784L49.8737 0L42.4049 7.46881C38.137 4.96654 33.2638 3.63163 28.1856 3.63163C20.6572 3.63163 13.5794 6.56377 8.25575 11.8874C2.93213 17.2105 0 24.2889 0 31.8172C0 39.3455 2.93168 46.4238 8.25575 51.7475C13.5794 57.0711 20.6572 60.0032 28.1856 60.0032C35.7143 60.0032 42.7927 57.0711 48.1163 51.7475C53.4399 46.4238 56.3716 39.3455 56.3716 31.8172C56.3716 26.7376 55.0344 21.864 52.5307 17.5951L60 10.1258ZM48.0906 11.9094L52.56 12.5782L47.2378 17.9004L42.9112 17.1277L42.1041 12.7572L47.4214 7.43997L48.0906 11.9094ZM33.6575 31.8172C33.6575 34.8349 31.2028 37.2896 28.1851 37.2896C25.1678 37.2896 22.7132 34.8349 22.7132 31.8172C22.7132 28.7999 25.1678 26.3452 28.1851 26.3452C29.0517 26.3452 29.8711 26.5485 30.5999 26.9083L26.939 30.5706L29.433 33.0642L33.094 29.4019C33.4542 30.1312 33.6575 30.9506 33.6575 31.8172ZM33.175 24.3333C31.7458 23.3774 30.0295 22.8189 28.1851 22.8189C23.2231 22.8189 19.1864 26.8557 19.1864 31.8176C19.1864 36.7796 23.2231 40.8164 28.1851 40.8164C33.1471 40.8164 37.1843 36.7796 37.1843 31.8176C37.1843 29.9723 36.6253 28.2561 35.669 26.8264L40.1965 22.2975C42.2754 24.9147 43.5187 28.2236 43.5187 31.8172C43.5187 40.2725 36.64 47.1513 28.1851 47.1513C19.7307 47.1513 12.8519 40.2725 12.8519 31.8172C12.8519 23.3628 19.7307 16.484 28.1851 16.484C31.7783 16.484 35.0863 17.7269 37.703 19.8039L33.175 24.3333ZM52.8448 31.8172C52.8448 45.4144 41.7828 56.4764 28.1856 56.4764C14.5883 56.4764 3.5268 45.4144 3.5268 31.8172C3.5268 18.2204 14.5883 7.15843 28.1856 7.15843C32.383 7.15843 36.3388 8.21409 39.8024 10.0718L38.2995 11.5743L39.2141 16.528C36.1103 14.2825 32.3002 12.9572 28.1851 12.9572C17.786 12.9572 9.32514 21.4181 9.32514 31.8172C9.32514 42.2168 17.786 50.6776 28.1851 50.6776C38.5847 50.6776 47.0455 42.2168 47.0455 31.8172C47.0455 27.714 45.7275 23.913 43.4935 20.8138L48.4303 21.6955L49.9291 20.1967C51.7882 23.6612 52.8448 27.6179 52.8448 31.8172Z" fill="#32CD32"/>
</svg>
