<svg width="32" height="32" viewBox="0 0 32 32" fill="none" xmlns="http://www.w3.org/2000/svg">
<path fill-rule="evenodd" clip-rule="evenodd" d="M10.6668 21.3334C10.7918 21.4584 10.862 21.6279 10.862 21.8047C10.862 21.9815 10.7918 22.151 10.6668 22.276L9.33344 23.6094C9.27194 23.673 9.19838 23.7238 9.11704 23.7588C9.03571 23.7937 8.94823 23.8121 8.85971 23.8129C8.77119 23.8136 8.6834 23.7968 8.60147 23.7632C8.51954 23.7297 8.4451 23.6802 8.38251 23.6176C8.31991 23.555 8.27041 23.4806 8.23689 23.3987C8.20337 23.3167 8.1865 23.2289 8.18727 23.1404C8.18804 23.0519 8.20643 22.9644 8.24137 22.8831C8.27631 22.8018 8.3271 22.7282 8.39077 22.6667L9.72411 21.3334C9.84912 21.2084 10.0187 21.1382 10.1954 21.1382C10.3722 21.1382 10.5418 21.2084 10.6668 21.3334ZM12.6668 23.3334C12.7918 23.4584 12.862 23.6279 12.862 23.8047C12.862 23.9815 12.7918 24.151 12.6668 24.276L11.3334 25.6094C11.2719 25.673 11.1984 25.7238 11.117 25.7588C11.0357 25.7937 10.9482 25.8121 10.8597 25.8129C10.7712 25.8136 10.6834 25.7968 10.6015 25.7632C10.5195 25.7297 10.4451 25.6802 10.3825 25.6176C10.3199 25.555 10.2704 25.4806 10.2369 25.3987C10.2034 25.3167 10.1865 25.2289 10.1873 25.1404C10.188 25.0519 10.2064 24.9644 10.2414 24.8831C10.2763 24.8018 10.3271 24.7282 10.3908 24.6667L11.7241 23.3334C11.8491 23.2084 12.0187 23.1382 12.1954 23.1382C12.3722 23.1382 12.5418 23.2084 12.6668 23.3334ZM8.66677 19.3334C8.79175 19.4584 8.86196 19.6279 8.86196 19.8047C8.86196 19.9815 8.79175 20.151 8.66677 20.276L7.33344 21.6094C7.27146 21.6713 7.19789 21.7203 7.11693 21.7538C7.03598 21.7873 6.94923 21.8045 6.86163 21.8044C6.77404 21.8043 6.68731 21.787 6.60641 21.7534C6.5255 21.7199 6.452 21.6707 6.39011 21.6087C6.32821 21.5467 6.27913 21.4731 6.24566 21.3922C6.2122 21.3112 6.19501 21.2245 6.19507 21.1369C6.19513 21.0493 6.21245 20.9626 6.24602 20.8817C6.2796 20.8008 6.32879 20.7273 6.39077 20.6654L7.72411 19.332C7.84912 19.207 8.01866 19.1368 8.19544 19.1368C8.37222 19.1368 8.54175 19.207 8.66677 19.332M16.8028 8.02136C13.1943 9.78788 10.4201 12.8961 9.07344 16.6814L15.3188 22.928C19.1042 21.5809 22.2124 18.8063 23.9788 15.1974L16.8028 8.02136ZM18.1961 15.1374C18.1961 15.4 18.1444 15.6601 18.0439 15.9027C17.9434 16.1454 17.796 16.3659 17.6103 16.5516C17.4246 16.7373 17.2041 16.8846 16.9615 16.9851C16.7188 17.0856 16.4587 17.1374 16.1961 17.1374C15.9335 17.1374 15.6734 17.0856 15.4307 16.9851C15.1881 16.8846 14.9676 16.7373 14.7819 16.5516C14.5962 16.3659 14.4489 16.1454 14.3483 15.9027C14.2478 15.6601 14.1961 15.4 14.1961 15.1374C14.1961 14.6069 14.4068 14.0982 14.7819 13.7231C15.157 13.3481 15.6657 13.1374 16.1961 13.1374C16.7265 13.1374 17.2352 13.3481 17.6103 13.7231C17.9854 14.0982 18.1961 14.6069 18.1961 15.1374Z" fill="#32CD32"/>
<path d="M24.5466 13.88C25.1988 12.1512 25.5317 10.3184 25.5292 8.4707C25.5292 7.83204 25.4892 7.20404 25.4146 6.58537C24.789 6.50883 24.1594 6.47053 23.5292 6.4707C21.6252 6.4707 19.8026 6.81737 18.1199 7.45204L24.5466 13.88ZM16.3546 23.9627L17.7239 25.332C17.8171 25.4254 17.9358 25.4891 18.0652 25.515C18.1945 25.5408 18.3287 25.5277 18.4506 25.4773C18.5725 25.4269 18.6767 25.3415 18.75 25.2319C18.8234 25.1222 18.8625 24.9933 18.8626 24.8614V22.7094C18.0634 23.1971 17.2244 23.6164 16.3546 23.9627ZM8.03723 15.6454C8.38523 14.7707 8.80523 13.932 9.29056 13.1374H7.13856C7.00654 13.1371 6.87741 13.1761 6.76756 13.2493C6.65771 13.3226 6.57207 13.4268 6.52152 13.5488C6.47096 13.6707 6.45776 13.8049 6.48358 13.9344C6.5094 14.0639 6.57309 14.1828 6.66656 14.276L8.03723 15.6454Z" fill="#32CD32"/>
</svg>
