<svg width="60" height="60" viewBox="0 0 60 60" fill="none" xmlns="http://www.w3.org/2000/svg">
<g clip-path="url(#clip0_383_1785)">
<path d="M46.3125 22.875C46.3125 13.875 39 6.5625 30 6.5625C21 6.5625 13.6875 13.875 13.6875 22.875C13.6875 31.875 21 39.1875 30 39.1875C39 39.1875 46.3125 31.875 46.3125 22.875ZM30 37.3125C21.9375 37.3125 15.375 30.75 15.375 22.6875C15.375 14.625 21.9375 8.0625 30 8.0625C38.0625 8.0625 44.625 14.625 44.625 22.6875C44.625 30.75 38.0625 37.3125 30 37.3125Z" fill="#32CD32"/>
<path d="M56.625 51.375L47.8125 35.8125C48.5625 35.4375 49.3125 35.0625 49.6875 34.3125C50.4375 33.1875 50.0625 31.875 49.875 30.5625C49.6875 29.625 49.5 28.875 49.6875 28.3125C49.875 27.75 50.4375 27.1875 51 26.4375C51.9375 25.5 52.875 24.375 52.875 23.0625C52.875 21.75 51.9375 20.625 51 19.6875C50.4375 19.125 49.875 18.375 49.6875 17.8125C49.5 17.25 49.6875 16.3125 49.875 15.5625C50.0625 14.25 50.4375 12.9375 49.6875 11.8125C48.9375 10.6875 47.625 10.125 46.5 9.75C45.75 9.5625 44.8125 9.1875 44.4375 8.8125C44.0625 8.4375 43.6875 7.5 43.5 6.75C43.125 5.0625 42.5625 3.75 41.4375 3C40.3125 2.25 39 2.625 37.6875 2.8125C36.75 3 36 3.1875 35.4375 3C34.875 2.8125 34.3125 2.25 33.5625 1.6875C32.625 0.75 31.5 -0.1875 30.1875 -0.1875C28.875 -0.1875 27.75 0.75 26.8125 1.6875C26.25 2.25 25.5 2.8125 24.9375 3C24.375 3.1875 23.4375 3 22.6875 2.8125C21.375 2.625 20.0625 2.25 18.9375 3C17.4375 3.75 16.875 5.0625 16.5 6.375C16.3125 7.125 15.9375 7.875 15.5625 8.4375C15.1875 9 14.25 9 13.5 9.375C12.1875 9.75 10.875 10.3125 10.3125 11.4375C9.5625 12.5625 9.9375 13.875 10.125 15.1875C10.3125 16.125 10.3125 16.875 10.3125 17.4375C10.125 18 9.5625 18.5625 9 19.3125C8.0625 20.25 7.125 21.375 7.125 22.6875C7.125 24 8.0625 25.125 9 26.0625C9.5625 26.625 10.125 27.375 10.3125 27.9375C10.5 28.5 10.3125 29.4375 10.125 30.1875C9.9375 31.5 9.5625 32.8125 10.3125 33.9375C10.6875 34.6875 11.4375 35.25 12.1875 35.4375L3.375 51C3.1875 51.375 3.1875 51.75 3.375 51.9375C3.5625 52.3125 3.9375 52.3125 4.3125 52.3125L12.9375 50.8125L16.3125 58.875C16.5 59.8125 16.6875 60 17.0625 60C17.4375 60 17.625 59.8125 17.8125 59.625L26.625 44.0625C27.5625 44.8125 28.6875 45.75 30 45.75C31.3125 45.75 32.4375 44.8125 33.375 44.0625L42.1875 59.625C42.375 60 42.5625 60 42.9375 60C43.3125 60 43.5 59.8125 43.6875 59.4375L47.0625 51.375L55.6875 52.875C56.0625 52.875 56.4375 52.875 56.625 52.5C56.625 52.125 56.8125 51.75 56.625 51.375ZM17.25 57L14.4375 49.875C14.25 49.5 13.875 49.3125 13.5 49.3125L6 50.625L13.875 36.375C14.4375 36.5625 15.1875 36.9375 15.5625 37.125C15.9375 37.5 16.3125 38.4375 16.5 39.1875C16.875 40.3125 17.4375 41.8125 18.5625 42.375C19.6875 43.125 21 42.75 22.3125 42.5625C23.25 42.375 24 42.1875 24.5625 42.375C24.75 42.375 24.9375 42.5625 25.125 42.5625L17.25 57ZM30 43.875C29.25 43.875 28.5 43.125 27.75 42.5625C27 41.8125 26.0625 41.25 25.125 40.875C24.75 40.875 24.375 40.6875 24 40.6875C23.25 40.6875 22.6875 40.875 21.9375 40.875C21 41.0625 19.875 41.25 19.3125 40.875C18.75 40.5 18.375 39.5625 18 38.625C17.625 37.6875 17.25 36.5625 16.5 35.8125C15.75 35.0625 14.8125 34.6875 13.6875 34.3125C12.75 33.9375 11.8125 33.5625 11.4375 33C11.0625 32.4375 11.25 31.5 11.4375 30.375C11.625 29.25 11.8125 28.3125 11.625 27.1875C11.4375 26.25 10.6875 25.5 9.9375 24.5625C9.1875 23.8125 8.625 23.0625 8.625 22.3125C8.625 21.5625 9.375 20.8125 9.9375 20.0625C10.6875 19.3125 11.25 18.375 11.625 17.4375C11.8125 16.5 11.625 15.375 11.4375 14.25C11.25 13.3125 11.0625 12.1875 11.4375 11.625C12.1875 11.8125 13.125 11.4375 14.0625 11.0625C15 10.6875 16.125 10.3125 16.875 9.5625C17.625 8.8125 18 7.875 18.375 6.75C18.75 5.8125 19.125 4.875 19.6875 4.5C20.25 4.125 21.1875 4.3125 22.3125 4.5C23.4375 4.6875 24.375 4.875 25.5 4.6875C26.4375 4.5 27.1875 3.75 28.125 3C28.5 2.4375 29.25 1.875 30 1.875C30.75 1.875 31.5 2.625 32.25 3.1875C33 3.9375 33.9375 4.5 34.875 4.875C35.8125 5.0625 36.9375 4.875 38.0625 4.6875C39 4.5 40.125 4.3125 40.6875 4.6875C41.25 5.0625 41.625 6 42 6.9375C42.375 7.875 42.75 9 43.5 9.75C44.25 10.5 45.1875 10.875 46.3125 11.25C47.25 11.625 48.1875 12 48.5625 12.5625C48.9375 13.125 48.75 14.0625 48.5625 15.1875C48.375 16.3125 48.1875 17.25 48.375 18.375C48.5625 19.3125 49.3125 20.0625 50.0625 21C50.8125 21.75 51.375 22.5 51.375 23.25C51.375 24 50.625 24.75 50.0625 25.5C49.3125 26.25 48.75 27.1875 48.375 28.125C48.1875 29.0625 48.375 30.1875 48.5625 31.3125C48.75 32.25 48.9375 33.375 48.5625 33.9375C48.1875 34.5 47.25 34.875 46.3125 35.25C45.375 35.625 44.25 36 43.5 36.75C42.75 37.5 42.375 38.4375 42 39.5625C41.625 40.5 41.25 41.4375 40.6875 41.8125C40.125 42.1875 39.1875 42 38.0625 41.8125C36.9375 41.625 36 41.4375 34.875 41.625C33.9375 41.8125 33.1875 42.5625 32.25 43.3125C31.5 43.125 30.75 43.875 30 43.875ZM46.5 49.3125C46.125 49.3125 45.75 49.5 45.5625 49.875L42.75 57L34.875 42.75C35.0625 42.5625 35.25 42.5625 35.4375 42.5625C36 42.375 36.9375 42.5625 37.6875 42.75C39 42.9375 40.3125 43.3125 41.4375 42.5625C42.5625 41.8125 43.125 40.5 43.5 39.375C43.6875 38.625 44.0625 37.6875 44.4375 37.3125C44.8125 36.9375 45.375 36.75 46.125 36.5625L54 50.8125L46.5 49.3125Z" fill="#32CD32"/>
<path d="M39.9375 25.125C39.9375 24.5625 39.75 24 39.1875 23.4375C39.375 23.0625 39.5625 22.6875 39.5625 22.3125C39.5625 21 38.4375 20.0625 37.125 20.0625H33.75C34.5 18.5625 35.0625 16.3125 33.5625 14.0625C33 13.3125 32.25 12.9375 31.5 12.9375C30.75 12.9375 30 13.3125 29.4375 14.0625C29.25 14.4375 29.0625 14.8125 28.875 15C28.5 16.5 27.9375 17.625 27.5625 18.1875C27.1875 18.5625 26.625 19.125 26.25 19.875C25.875 19.5 25.3125 19.125 24.5625 19.125H22.3125C21 19.125 20.0625 20.0625 20.0625 21.375V30.375C20.0625 31.6875 21 32.625 22.3125 32.625H24.5625C25.5 32.625 26.0625 32.0625 26.625 31.5C27.9375 32.25 29.25 32.625 30.75 32.625H36C36.5625 32.625 37.3125 32.4375 37.6875 31.875C38.25 31.5 38.4375 30.75 38.4375 30.1875V29.625C39 29.25 39.375 28.5 39.375 27.75C39.375 27.375 39.1875 27 39.1875 26.625C39.5625 26.4375 39.9375 25.875 39.9375 25.125ZM24.5625 30.9375H22.3125C22.125 30.9375 21.9375 30.75 21.9375 30.5625V21.5625C21.9375 21.375 22.125 21.1875 22.3125 21.1875H24.5625C24.75 21.1875 24.9375 21.375 24.9375 21.5625V30.5625C25.125 30.5625 24.9375 30.9375 24.5625 30.9375ZM36 30.75H30.75C29.4375 30.75 27.9375 30.1875 27 29.4375V22.5C27.375 21.5625 28.3125 20.25 29.0625 19.5C30 18.5625 30.5625 16.6875 30.9375 15.5625C30.9375 15.375 30.9375 15.375 31.125 15.1875C31.3125 15 31.5 14.8125 31.6875 14.8125C31.875 14.8125 32.0625 15 32.25 15.1875C33.75 17.25 32.0625 19.6875 31.5 20.4375C31.3125 20.625 31.3125 21 31.3125 21.375C31.5 21.75 31.875 21.9375 32.0625 21.9375H37.125C37.5 21.9375 37.6875 22.125 37.6875 22.5C37.6875 22.6875 37.5 22.875 37.5 22.875C37.3125 23.0625 37.125 23.0625 36.9375 23.0625H35.0625C34.5 23.0625 34.125 23.4375 34.125 24C34.125 24.5625 34.5 24.9375 35.0625 24.9375H37.3125C37.6875 24.9375 37.875 25.125 37.875 25.5C37.875 25.6875 37.5 26.0625 37.3125 26.0625H35.625C35.0625 26.0625 34.6875 26.4375 34.6875 27C34.6875 27.5625 35.0625 27.9375 35.625 27.9375H36.9375C37.3125 27.9375 37.5 28.125 37.5 28.5C37.5 28.875 37.125 29.0625 36.9375 29.0625H36C35.4375 29.0625 35.0625 29.4375 35.0625 30C35.0625 30.5625 35.4375 30.9375 36 30.9375H36.75C36.75 31.125 36.5625 31.125 36.5625 31.3125C36.375 30.75 36.1875 30.75 36 30.75Z" fill="#32CD32"/>
</g>
<defs>
<clipPath id="clip0_383_1785">
<rect width="60" height="60" fill="white"/>
</clipPath>
</defs>
</svg>
