<svg width="26" height="18" viewBox="0 0 26 18" fill="none" xmlns="http://www.w3.org/2000/svg">
<path d="M25.9253 8.64905C25.8873 8.56346 24.9698 6.52788 22.9298 4.48796C20.2118 1.76987 16.7787 0.333374 13 0.333374C9.22133 0.333374 5.78824 1.76987 3.07016 4.48796C1.03024 6.52788 0.108323 8.56671 0.0747397 8.64905C0.0254622 8.75988 0 8.87983 0 9.00113C0 9.12243 0.0254622 9.24238 0.0747397 9.35321C0.112656 9.4388 1.03024 11.4733 3.07016 13.5132C5.78824 16.2302 9.22133 17.6667 13 17.6667C16.7787 17.6667 20.2118 16.2302 22.9298 13.5132C24.9698 11.4733 25.8873 9.4388 25.9253 9.35321C25.9745 9.24238 26 9.12243 26 9.00113C26 8.87983 25.9745 8.75988 25.9253 8.64905ZM13 15.9334C9.6655 15.9334 6.75241 14.7211 4.34091 12.3313C3.35144 11.3473 2.50963 10.2252 1.84166 9.00005C2.50945 7.77473 3.35128 6.65265 4.34091 5.66879C6.75241 3.27896 9.6655 2.06671 13 2.06671C16.3345 2.06671 19.2476 3.27896 21.6591 5.66879C22.6505 6.65242 23.4941 7.77449 24.1638 9.00005C23.3827 10.4582 19.9799 15.9334 13 15.9334ZM13 3.80004C11.9715 3.80004 10.9662 4.10502 10.111 4.6764C9.2559 5.24779 8.5894 6.05992 8.19582 7.01009C7.80225 7.96027 7.69927 9.00581 7.89991 10.0145C8.10056 11.0232 8.59581 11.9498 9.32304 12.677C10.0503 13.4042 10.9768 13.8995 11.9855 14.1001C12.9942 14.3008 14.0398 14.1978 14.99 13.8042C15.9401 13.4106 16.7523 12.7442 17.3236 11.889C17.895 11.0339 18.2 10.0285 18.2 9.00005C18.1986 7.62136 17.6503 6.29955 16.6754 5.32467C15.7005 4.34979 14.3787 3.80148 13 3.80004ZM13 12.4667C12.3144 12.4667 11.6441 12.2634 11.074 11.8825C10.5039 11.5016 10.0596 10.9601 9.79721 10.3267C9.53483 9.69323 9.46618 8.9962 9.59994 8.32373C9.7337 7.65127 10.0639 7.03356 10.5487 6.54874C11.0335 6.06392 11.6512 5.73375 12.3237 5.59999C12.9962 5.46623 13.6932 5.53488 14.3266 5.79726C14.9601 6.05965 15.5015 6.50398 15.8824 7.07407C16.2634 7.64416 16.4667 8.3144 16.4667 9.00005C16.4667 9.91946 16.1014 10.8012 15.4513 11.4514C14.8012 12.1015 13.9194 12.4667 13 12.4667Z" fill="#32CD32"/>
</svg>
