<svg width="35" height="36" viewBox="0 0 35 36" fill="none" xmlns="http://www.w3.org/2000/svg">
<path d="M5 2.6875C2.24219 2.6875 0 4.64941 0 7.0625V28.9375C0 31.3506 2.24219 33.3125 5 33.3125H30C32.7578 33.3125 35 31.3506 35 28.9375V7.0625C35 4.64941 32.7578 2.6875 30 2.6875H5ZM28.2109 8.42969L20.1016 16.5371L29.6406 27.5703H22.1719L16.3281 20.8779L9.63281 27.5703H5.92188L14.5938 18.8955L5.44531 8.42969H13.1016L18.3906 14.5479L24.5 8.42969H28.2109ZM25.2578 25.6289L11.9844 10.2686H9.77344L23.1953 25.6289H25.25H25.2578Z" fill="white"/>
</svg>
