<svg width="55" height="55" viewBox="0 0 55 55" fill="none" xmlns="http://www.w3.org/2000/svg">
<path d="M27.5 2.29163C22.5142 2.29163 17.6405 3.77007 13.495 6.54C9.34948 9.30992 6.11847 13.2469 4.21051 17.8531C2.30255 22.4594 1.80334 27.5279 2.77601 32.4179C3.74868 37.3078 6.14954 41.7995 9.67499 45.3249C13.2004 48.8504 17.6921 51.2513 22.5821 52.2239C27.472 53.1966 32.5406 52.6974 37.1468 50.7894C41.753 48.8815 45.69 45.6504 48.4599 41.505C51.2299 37.3595 52.7083 32.4857 52.7083 27.5C52.7083 20.8143 50.0524 14.4025 45.325 9.67498C40.5975 4.9475 34.1856 2.29163 27.5 2.29163V2.29163ZM27.5 48.125C23.4207 48.125 19.4331 46.9153 16.0413 44.649C12.6496 42.3827 10.006 39.1615 8.44496 35.3928C6.8839 31.6241 6.47545 27.4771 7.27127 23.4762C8.06709 19.4754 10.0314 15.8003 12.9159 12.9159C15.8004 10.0314 19.4754 8.06708 23.4762 7.27126C27.4771 6.47544 31.6241 6.88389 35.3928 8.44494C39.1615 10.006 42.3827 12.6496 44.649 16.0413C46.9153 19.4331 48.125 23.4207 48.125 27.5C48.125 32.9701 45.952 38.2161 42.084 42.084C38.2161 45.952 32.9701 48.125 27.5 48.125V48.125ZM33.9854 14.7812L27.5 24.5208L21.0146 14.7812C20.8481 14.5293 20.6334 14.3128 20.383 14.1441C20.1326 13.9754 19.8512 13.8578 19.5552 13.7982C19.2592 13.7386 18.9543 13.738 18.6581 13.7966C18.3619 13.8552 18.0802 13.9717 17.8291 14.1395C17.3268 14.4756 16.9775 14.9964 16.8573 15.5887C16.7371 16.181 16.8558 16.7968 17.1875 17.302L22.0229 24.5666H20.625C20.0172 24.5666 19.4343 24.8081 19.0045 25.2378C18.5747 25.6676 18.3333 26.2505 18.3333 26.8583C18.3333 27.4661 18.5747 28.049 19.0045 28.4787C19.4343 28.9085 20.0172 29.15 20.625 29.15H25.2083L25.3229 29.3333V31.4416H20.625C20.0172 31.4416 19.4343 31.6831 19.0045 32.1128C18.5747 32.5426 18.3333 33.1255 18.3333 33.7333C18.3333 34.3411 18.5747 34.924 19.0045 35.3537C19.4343 35.7835 20.0172 36.025 20.625 36.025H25.2083V41.25C25.2083 41.8577 25.4497 42.4406 25.8795 42.8704C26.3093 43.3002 26.8922 43.5416 27.5 43.5416C28.1078 43.5416 28.6907 43.3002 29.1204 42.8704C29.5502 42.4406 29.7916 41.8577 29.7916 41.25V36.025H34.375C34.9828 36.025 35.5657 35.7835 35.9954 35.3537C36.4252 34.924 36.6666 34.3411 36.6666 33.7333C36.6666 33.1255 36.4252 32.5426 35.9954 32.1128C35.5657 31.6831 34.9828 31.4416 34.375 31.4416H29.7916V29.3333L29.9062 29.15H34.375C34.9828 29.15 35.5657 28.9085 35.9954 28.4787C36.4252 28.049 36.6666 27.4661 36.6666 26.8583C36.6666 26.2505 36.4252 25.6676 35.9954 25.2378C35.5657 24.8081 34.9828 24.5666 34.375 24.5666H32.9771L37.8125 17.302C38.1441 16.7968 38.2628 16.181 38.1426 15.5887C38.0225 14.9964 37.6732 14.4756 37.1708 14.1395C36.9198 13.9717 36.638 13.8552 36.3418 13.7966C36.0456 13.738 35.7407 13.7386 35.4447 13.7982C35.1487 13.8578 34.8674 13.9754 34.6169 14.1441C34.3665 14.3128 34.1519 14.5293 33.9854 14.7812Z" fill="#32CD32"/>
</svg>
