<svg width="55" height="55" viewBox="0 0 55 55" fill="none" xmlns="http://www.w3.org/2000/svg">
<path d="M27.4999 20.625C26.8921 20.625 26.3092 20.8665 25.8795 21.2963C25.4497 21.726 25.2083 22.3089 25.2083 22.9167V29.7917C25.2083 30.3995 25.4497 30.9824 25.8795 31.4122C26.3092 31.8419 26.8921 32.0834 27.4999 32.0834C28.1077 32.0834 28.6906 31.8419 29.1204 31.4122C29.5501 30.9824 29.7916 30.3995 29.7916 29.7917V22.9167C29.7916 22.3089 29.5501 21.726 29.1204 21.2963C28.6906 20.8665 28.1077 20.625 27.4999 20.625ZM43.5416 4.58337H11.4583C9.63489 4.58337 7.88621 5.3077 6.59689 6.59702C5.30758 7.88633 4.58325 9.63501 4.58325 11.4584V34.375C4.58325 36.1984 5.30758 37.9471 6.59689 39.2364C7.88621 40.5257 9.63489 41.25 11.4583 41.25H38.0187L46.4978 49.7521C46.712 49.9645 46.9659 50.1326 47.2451 50.2466C47.5243 50.3606 47.8233 50.4185 48.1249 50.4167C48.4255 50.4245 48.7238 50.3617 48.9958 50.2334C49.4143 50.0615 49.7725 49.7695 50.0254 49.3943C50.2782 49.0191 50.4143 48.5775 50.4166 48.125V11.4584C50.4166 9.63501 49.6923 7.88633 48.4029 6.59702C47.1136 5.3077 45.365 4.58337 43.5416 4.58337ZM45.8333 42.6021L40.5853 37.3313C40.3712 37.1189 40.1173 36.9509 39.838 36.8368C39.5588 36.7228 39.2599 36.665 38.9583 36.6667H11.4583C10.8505 36.6667 10.2676 36.4253 9.8378 35.9955C9.40803 35.5657 9.16659 34.9828 9.16659 34.375V11.4584C9.16659 10.8506 9.40803 10.2677 9.8378 9.83792C10.2676 9.40815 10.8505 9.16671 11.4583 9.16671H43.5416C44.1494 9.16671 44.7323 9.40815 45.162 9.83792C45.5918 10.2677 45.8333 10.8506 45.8333 11.4584V42.6021ZM27.4999 13.75C27.0467 13.75 26.6036 13.8844 26.2267 14.1363C25.8499 14.3881 25.5561 14.746 25.3827 15.1647C25.2092 15.5835 25.1639 16.0442 25.2523 16.4888C25.3407 16.9333 25.559 17.3417 25.8795 17.6622C26.2 17.9827 26.6083 18.2009 27.0528 18.2893C27.4974 18.3778 27.9582 18.3324 28.3769 18.1589C28.7957 17.9855 29.1536 17.6918 29.4054 17.3149C29.6572 16.938 29.7916 16.495 29.7916 16.0417C29.7916 15.4339 29.5501 14.851 29.1204 14.4213C28.6906 13.9915 28.1077 13.75 27.4999 13.75Z" fill="#32CD32"/>
</svg>
