<svg width="55" height="55" viewBox="0 0 55 55" fill="none" xmlns="http://www.w3.org/2000/svg">
<path d="M38.9584 20.625H16.0417C15.4339 20.625 14.851 20.8665 14.4213 21.2963C13.9915 21.726 13.7501 22.3089 13.7501 22.9167C13.7501 23.5245 13.9915 24.1074 14.4213 24.5372C14.851 24.9669 15.4339 25.2084 16.0417 25.2084H38.9584C39.5662 25.2084 40.1491 24.9669 40.5788 24.5372C41.0086 24.1074 41.2501 23.5245 41.2501 22.9167C41.2501 22.3089 41.0086 21.726 40.5788 21.2963C40.1491 20.8665 39.5662 20.625 38.9584 20.625ZM29.7917 29.7917H16.0417C15.4339 29.7917 14.851 30.0332 14.4213 30.4629C13.9915 30.8927 13.7501 31.4756 13.7501 32.0834C13.7501 32.6912 13.9915 33.2741 14.4213 33.7038C14.851 34.1336 15.4339 34.375 16.0417 34.375H29.7917C30.3995 34.375 30.9824 34.1336 31.4122 33.7038C31.8419 33.2741 32.0834 32.6912 32.0834 32.0834C32.0834 31.4756 31.8419 30.8927 31.4122 30.4629C30.9824 30.0332 30.3995 29.7917 29.7917 29.7917ZM27.5001 4.58337C24.4906 4.58337 21.5106 5.17613 18.7302 6.3278C15.9499 7.47947 13.4235 9.1675 11.2955 11.2955C6.99782 15.5932 4.58339 21.4222 4.58339 27.5C4.56336 32.7918 6.39563 37.9238 9.76256 42.0063L5.17923 46.5896C4.86124 46.9119 4.64583 47.3211 4.56018 47.7657C4.47453 48.2102 4.52248 48.6702 4.69798 49.0875C4.88832 49.4999 5.19688 49.8464 5.5845 50.083C5.97212 50.3197 6.42131 50.4358 6.87506 50.4167H27.5001C33.5779 50.4167 39.4069 48.0023 43.7046 43.7046C48.0023 39.4069 50.4167 33.5779 50.4167 27.5C50.4167 21.4222 48.0023 15.5932 43.7046 11.2955C39.4069 6.9978 33.5779 4.58337 27.5001 4.58337V4.58337ZM27.5001 45.8334H12.398L14.5292 43.7021C14.9561 43.2728 15.1956 42.6919 15.1956 42.0865C15.1956 41.4811 14.9561 40.9002 14.5292 40.4709C11.5285 37.4735 9.65983 33.5284 9.24164 29.3077C8.82345 25.087 9.88159 20.8519 12.2358 17.3239C14.59 13.796 18.0946 11.1934 22.1525 9.95956C26.2104 8.72576 30.5706 8.93709 34.4901 10.5576C38.4097 12.178 41.6462 15.1073 43.6481 18.8465C45.6501 22.5856 46.2937 26.9032 45.4693 31.0636C44.6449 35.224 42.4035 38.9699 39.1269 41.6631C35.8504 44.3562 31.7414 45.83 27.5001 45.8334V45.8334Z" fill="#32CD32"/>
</svg>
