<svg width="55" height="55" viewBox="0 0 55 55" fill="none" xmlns="http://www.w3.org/2000/svg">
<path d="M26.3541 45.8334H12.6041C11.9963 45.8334 11.4134 45.5919 10.9837 45.1622C10.5539 44.7324 10.3125 44.1495 10.3125 43.5417V11.4584C10.3125 10.8506 10.5539 10.2677 10.9837 9.83792C11.4134 9.40815 11.9963 9.16671 12.6041 9.16671H24.0625V16.0417C24.0625 17.8651 24.7868 19.6138 26.0761 20.9031C27.3654 22.1924 29.1141 22.9167 30.9375 22.9167H37.8125V34.375C37.8125 34.9828 38.0539 35.5657 38.4837 35.9955C38.9134 36.4253 39.4963 36.6667 40.1041 36.6667C40.7119 36.6667 41.2948 36.4253 41.7246 35.9955C42.1544 35.5657 42.3958 34.9828 42.3958 34.375V20.625C42.3958 20.625 42.3958 20.625 42.3958 20.4875C42.3719 20.277 42.3258 20.0696 42.2583 19.8688V19.6625C42.1481 19.4269 42.0011 19.2103 41.8229 19.0209V19.0209L28.0729 5.27087C27.8834 5.09262 27.6668 4.94564 27.4312 4.83546C27.3554 4.82219 27.2779 4.82219 27.202 4.83546C26.9792 4.7163 26.7397 4.63132 26.4916 4.58337H12.6041C10.7808 4.58337 9.03208 5.3077 7.74277 6.59701C6.45345 7.88633 5.72913 9.63501 5.72913 11.4584V43.5417C5.72913 45.3651 6.45345 47.1138 7.74277 48.4031C9.03208 49.6924 10.7808 50.4167 12.6041 50.4167H26.3541C26.9619 50.4167 27.5448 50.1753 27.9746 49.7455C28.4044 49.3157 28.6458 48.7328 28.6458 48.125C28.6458 47.5172 28.4044 46.9344 27.9746 46.5046C27.5448 46.0748 26.9619 45.8334 26.3541 45.8334ZM28.6458 12.398L34.5812 18.3334H30.9375C30.3297 18.3334 29.7468 18.0919 29.317 17.6622C28.8872 17.2324 28.6458 16.6495 28.6458 16.0417V12.398ZM17.1875 32.0834H30.9375C31.5452 32.0834 32.1281 31.8419 32.5579 31.4122C32.9877 30.9824 33.2291 30.3995 33.2291 29.7917C33.2291 29.1839 32.9877 28.601 32.5579 28.1713C32.1281 27.7415 31.5452 27.5 30.9375 27.5H17.1875C16.5797 27.5 15.9968 27.7415 15.567 28.1713C15.1372 28.601 14.8958 29.1839 14.8958 29.7917C14.8958 30.3995 15.1372 30.9824 15.567 31.4122C15.9968 31.8419 16.5797 32.0834 17.1875 32.0834ZM26.3541 36.6667H17.1875C16.5797 36.6667 15.9968 36.9081 15.567 37.3379C15.1372 37.7677 14.8958 38.3506 14.8958 38.9584C14.8958 39.5662 15.1372 40.1491 15.567 40.5788C15.9968 41.0086 16.5797 41.25 17.1875 41.25H26.3541C26.9619 41.25 27.5448 41.0086 27.9746 40.5788C28.4044 40.1491 28.6458 39.5662 28.6458 38.9584C28.6458 38.3506 28.4044 37.7677 27.9746 37.3379C27.5448 36.9081 26.9619 36.6667 26.3541 36.6667ZM17.1875 22.9167H19.4791C20.0869 22.9167 20.6698 22.6753 21.0996 22.2455C21.5293 21.8157 21.7708 21.2328 21.7708 20.625C21.7708 20.0173 21.5293 19.4344 21.0996 19.0046C20.6698 18.5748 20.0869 18.3334 19.4791 18.3334H17.1875C16.5797 18.3334 15.9968 18.5748 15.567 19.0046C15.1372 19.4344 14.8958 20.0173 14.8958 20.625C14.8958 21.2328 15.1372 21.8157 15.567 22.2455C15.9968 22.6753 16.5797 22.9167 17.1875 22.9167ZM48.6062 37.3313C48.3932 37.1165 48.1397 36.946 47.8604 36.8297C47.5812 36.7133 47.2817 36.6534 46.9791 36.6534C46.6766 36.6534 46.3771 36.7133 46.0978 36.8297C45.8185 36.946 45.5651 37.1165 45.352 37.3313L37.8125 44.8938L34.8562 41.9146C34.6425 41.701 34.3889 41.5315 34.1097 41.4158C33.8305 41.3002 33.5313 41.2407 33.2291 41.2407C32.9269 41.2407 32.6277 41.3002 32.3486 41.4158C32.0694 41.5315 31.8157 41.701 31.602 41.9146C31.3884 42.1283 31.2189 42.382 31.1032 42.6611C30.9876 42.9403 30.9281 43.2395 30.9281 43.5417C30.9281 43.8439 30.9876 44.1431 31.1032 44.4223C31.2189 44.7015 31.3884 44.9551 31.602 45.1688L36.1854 49.7521C36.3984 49.9669 36.6519 50.1374 36.9311 50.2537C37.2104 50.3701 37.5099 50.43 37.8125 50.43C38.115 50.43 38.4145 50.3701 38.6938 50.2537C38.973 50.1374 39.2265 49.9669 39.4395 49.7521L48.6062 40.5855C48.821 40.3724 48.9915 40.119 49.1078 39.8397C49.2242 39.5604 49.2841 39.2609 49.2841 38.9584C49.2841 38.6558 49.2242 38.3563 49.1078 38.077C48.9915 37.7978 48.821 37.5443 48.6062 37.3313V37.3313Z" fill="#32CD32"/>
</svg>
