<svg width="55" height="55" viewBox="0 0 55 55" fill="none" xmlns="http://www.w3.org/2000/svg">
<path d="M47.4604 38.2938L41.9146 32.748C41.7015 32.5332 41.4481 32.3627 41.1688 32.2463C40.8896 32.13 40.59 32.0701 40.2875 32.0701C39.985 32.0701 39.6854 32.13 39.4062 32.2463C39.1269 32.3627 38.8735 32.5332 38.6604 32.748L30.4563 40.9521C30.2439 41.1663 30.0758 41.4202 29.9618 41.6994C29.8477 41.9786 29.7899 42.2776 29.7917 42.5792V48.125C29.7917 48.7328 30.0331 49.3157 30.4629 49.7455C30.8927 50.1753 31.4755 50.4167 32.0833 50.4167H37.6292C37.9308 50.4185 38.2297 50.3606 38.509 50.2466C38.7882 50.1326 39.0421 49.9645 39.2562 49.7521L47.4604 41.548C47.6752 41.3349 47.8457 41.0815 47.962 40.8022C48.0784 40.5229 48.1383 40.2234 48.1383 39.9209C48.1383 39.6183 48.0784 39.3188 47.962 39.0396C47.8457 38.7603 47.6752 38.5068 47.4604 38.2938V38.2938ZM36.6667 45.8334H34.375V43.5417L40.2875 37.6292L42.5792 39.9209L36.6667 45.8334ZM22.9167 45.8334H13.75C13.1422 45.8334 12.5593 45.5919 12.1295 45.1622C11.6998 44.7324 11.4583 44.1495 11.4583 43.5417V11.4584C11.4583 10.8506 11.6998 10.2677 12.1295 9.83792C12.5593 9.40815 13.1422 9.16671 13.75 9.16671H25.2083V16.0417C25.2083 17.8651 25.9327 19.6138 27.222 20.9031C28.5113 22.1924 30.26 22.9167 32.0833 22.9167H38.9583V25.2084C38.9583 25.8162 39.1998 26.3991 39.6295 26.8288C40.0593 27.2586 40.6422 27.5 41.25 27.5C41.8578 27.5 42.4407 27.2586 42.8705 26.8288C43.3002 26.3991 43.5417 25.8162 43.5417 25.2084V20.625C43.5417 20.625 43.5417 20.625 43.5417 20.4875C43.5178 20.277 43.4717 20.0696 43.4042 19.8688V19.6625C43.294 19.4269 43.147 19.2103 42.9688 19.0209L29.2188 5.27087C29.0293 5.09262 28.8127 4.94564 28.5771 4.83546C28.5087 4.82574 28.4392 4.82574 28.3708 4.83546L27.6375 4.58337H13.75C11.9266 4.58337 10.178 5.3077 8.88864 6.59702C7.59933 7.88633 6.875 9.63501 6.875 11.4584V43.5417C6.875 45.3651 7.59933 47.1138 8.88864 48.4031C10.178 49.6924 11.9266 50.4167 13.75 50.4167H22.9167C23.5245 50.4167 24.1073 50.1753 24.5371 49.7455C24.9669 49.3157 25.2083 48.7328 25.2083 48.125C25.2083 47.5173 24.9669 46.9344 24.5371 46.5046C24.1073 46.0748 23.5245 45.8334 22.9167 45.8334ZM29.7917 12.398L35.7271 18.3334H32.0833C31.4755 18.3334 30.8927 18.0919 30.4629 17.6622C30.0331 17.2324 29.7917 16.6495 29.7917 16.0417V12.398ZM18.3333 32.0834H32.0833C32.6911 32.0834 33.274 31.8419 33.7038 31.4122C34.1336 30.9824 34.375 30.3995 34.375 29.7917C34.375 29.1839 34.1336 28.601 33.7038 28.1713C33.274 27.7415 32.6911 27.5 32.0833 27.5H18.3333C17.7255 27.5 17.1427 27.7415 16.7129 28.1713C16.2831 28.601 16.0417 29.1839 16.0417 29.7917C16.0417 30.3995 16.2831 30.9824 16.7129 31.4122C17.1427 31.8419 17.7255 32.0834 18.3333 32.0834ZM18.3333 22.9167H20.625C21.2328 22.9167 21.8157 22.6753 22.2455 22.2455C22.6752 21.8157 22.9167 21.2328 22.9167 20.625C22.9167 20.0173 22.6752 19.4344 22.2455 19.0046C21.8157 18.5748 21.2328 18.3334 20.625 18.3334H18.3333C17.7255 18.3334 17.1427 18.5748 16.7129 19.0046C16.2831 19.4344 16.0417 20.0173 16.0417 20.625C16.0417 21.2328 16.2831 21.8157 16.7129 22.2455C17.1427 22.6753 17.7255 22.9167 18.3333 22.9167ZM22.9167 36.6667H18.3333C17.7255 36.6667 17.1427 36.9081 16.7129 37.3379C16.2831 37.7677 16.0417 38.3506 16.0417 38.9584C16.0417 39.5662 16.2831 40.1491 16.7129 40.5788C17.1427 41.0086 17.7255 41.25 18.3333 41.25H22.9167C23.5245 41.25 24.1073 41.0086 24.5371 40.5788C24.9669 40.1491 25.2083 39.5662 25.2083 38.9584C25.2083 38.3506 24.9669 37.7677 24.5371 37.3379C24.1073 36.9081 23.5245 36.6667 22.9167 36.6667Z" fill="#32CD32"/>
</svg>
