<svg width="55" height="55" viewBox="0 0 55 55" fill="none" xmlns="http://www.w3.org/2000/svg">
<path d="M25.2083 20.625H34.375C34.9828 20.625 35.5657 20.3835 35.9954 19.9537C36.4252 19.524 36.6666 18.9411 36.6666 18.3333C36.6666 17.7255 36.4252 17.1426 35.9954 16.7128C35.5657 16.2831 34.9828 16.0416 34.375 16.0416H29.7916V13.75C29.7916 13.1422 29.5502 12.5593 29.1204 12.1295C28.6907 11.6997 28.1078 11.4583 27.5 11.4583C26.8922 11.4583 26.3093 11.6997 25.8795 12.1295C25.4497 12.5593 25.2083 13.1422 25.2083 13.75V16.0416C23.3849 16.0416 21.6363 16.766 20.3469 18.0553C19.0576 19.3446 18.3333 21.0933 18.3333 22.9166C18.3333 24.74 19.0576 26.4887 20.3469 27.778C21.6363 29.0673 23.3849 29.7916 25.2083 29.7916H29.7916C30.3994 29.7916 30.9823 30.0331 31.4121 30.4628C31.8419 30.8926 32.0833 31.4755 32.0833 32.0833C32.0833 32.6911 31.8419 33.274 31.4121 33.7037C30.9823 34.1335 30.3994 34.375 29.7916 34.375H20.625C20.0172 34.375 19.4343 34.6164 19.0045 35.0462C18.5747 35.4759 18.3333 36.0588 18.3333 36.6666C18.3333 37.2744 18.5747 37.8573 19.0045 38.2871C19.4343 38.7169 20.0172 38.9583 20.625 38.9583H25.2083V41.25C25.2083 41.8577 25.4497 42.4406 25.8795 42.8704C26.3093 43.3002 26.8922 43.5416 27.5 43.5416C28.1078 43.5416 28.6907 43.3002 29.1204 42.8704C29.5502 42.4406 29.7916 41.8577 29.7916 41.25V38.9583C31.615 38.9583 33.3637 38.234 34.653 36.9447C35.9423 35.6553 36.6666 33.9067 36.6666 32.0833C36.6666 30.2599 35.9423 28.5112 34.653 27.2219C33.3637 25.9326 31.615 25.2083 29.7916 25.2083H25.2083C24.6005 25.2083 24.0176 24.9669 23.5879 24.5371C23.1581 24.1073 22.9166 23.5244 22.9166 22.9166C22.9166 22.3088 23.1581 21.7259 23.5879 21.2962C24.0176 20.8664 24.6005 20.625 25.2083 20.625V20.625ZM27.5 2.29163C22.5142 2.29163 17.6405 3.77007 13.495 6.54C9.34948 9.30992 6.11847 13.2469 4.21051 17.8531C2.30255 22.4594 1.80334 27.5279 2.77601 32.4179C3.74868 37.3078 6.14954 41.7995 9.67499 45.3249C13.2004 48.8504 17.6921 51.2513 22.5821 52.2239C27.472 53.1966 32.5406 52.6974 37.1468 50.7894C41.753 48.8815 45.69 45.6504 48.4599 41.505C51.2299 37.3595 52.7083 32.4857 52.7083 27.5C52.7083 20.8143 50.0524 14.4025 45.325 9.67498C40.5975 4.9475 34.1856 2.29163 27.5 2.29163V2.29163ZM27.5 48.125C23.4207 48.125 19.4331 46.9153 16.0413 44.649C12.6496 42.3827 10.006 39.1615 8.44496 35.3928C6.8839 31.6241 6.47545 27.4771 7.27127 23.4762C8.06709 19.4754 10.0314 15.8003 12.9159 12.9159C15.8004 10.0314 19.4754 8.06708 23.4762 7.27126C27.4771 6.47544 31.6241 6.88389 35.3928 8.44494C39.1615 10.006 42.3827 12.6496 44.649 16.0413C46.9153 19.4331 48.125 23.4207 48.125 27.5C48.125 32.9701 45.952 38.2161 42.084 42.084C38.2161 45.952 32.9701 48.125 27.5 48.125V48.125Z" fill="#32CD32"/>
</svg>
