<svg width="42" height="43" viewBox="0 0 42 43" fill="none" xmlns="http://www.w3.org/2000/svg">
<g clip-path="url(#clip0_312_1300)">
<path d="M21 42.5C32.5789 42.5 42 33.0789 42 21.5C42 9.92113 32.5789 0.5 21 0.5C9.42113 0.5 0 9.92113 0 21.5C0 33.0789 9.42113 42.5 21 42.5ZM21 1.8125C31.8557 1.8125 40.6875 10.6443 40.6875 21.5C40.6875 32.3557 31.8557 41.1875 21 41.1875C10.1443 41.1875 1.3125 32.3557 1.3125 21.5C1.3125 10.6443 10.1443 1.8125 21 1.8125Z" fill="#32CD32"/>
<path d="M26.3301 29.0705C26.3908 29.1319 26.4632 29.1807 26.543 29.214C26.6227 29.2473 26.7083 29.2644 26.7947 29.2644C26.8811 29.2644 26.9667 29.2473 27.0464 29.214C27.1262 29.1807 27.1985 29.1319 27.2593 29.0705C27.3823 28.9474 27.4515 28.7806 27.4515 28.6065C27.4515 28.4325 27.3823 28.2656 27.2593 28.1426L21 21.8846V12.7312C21 12.5572 20.9309 12.3902 20.8078 12.2672C20.6847 12.1441 20.5178 12.075 20.3438 12.075C20.1697 12.075 20.0028 12.1441 19.8797 12.2672C19.7566 12.3902 19.6875 12.5572 19.6875 12.7312V22.1563C19.6875 22.3308 19.7571 22.4975 19.8791 22.6209L26.3301 29.0705Z" fill="#32CD32"/>
<path d="M5.25 22.8125C5.97487 22.8125 6.5625 22.2249 6.5625 21.5C6.5625 20.7751 5.97487 20.1875 5.25 20.1875C4.52513 20.1875 3.9375 20.7751 3.9375 21.5C3.9375 22.2249 4.52513 22.8125 5.25 22.8125Z" fill="#32CD32"/>
<path d="M36.75 22.8125C37.4749 22.8125 38.0625 22.2249 38.0625 21.5C38.0625 20.7751 37.4749 20.1875 36.75 20.1875C36.0251 20.1875 35.4375 20.7751 35.4375 21.5C35.4375 22.2249 36.0251 22.8125 36.75 22.8125Z" fill="#32CD32"/>
<path d="M21 7.0625C21.7249 7.0625 22.3125 6.47487 22.3125 5.75C22.3125 5.02513 21.7249 4.4375 21 4.4375C20.2751 4.4375 19.6875 5.02513 19.6875 5.75C19.6875 6.47487 20.2751 7.0625 21 7.0625Z" fill="#32CD32"/>
<path d="M21 38.5625C21.7249 38.5625 22.3125 37.9749 22.3125 37.25C22.3125 36.5251 21.7249 35.9375 21 35.9375C20.2751 35.9375 19.6875 36.5251 19.6875 37.25C19.6875 37.9749 20.2751 38.5625 21 38.5625Z" fill="#32CD32"/>
<path d="M10.5 12.3125C11.2249 12.3125 11.8125 11.7249 11.8125 11C11.8125 10.2751 11.2249 9.6875 10.5 9.6875C9.77513 9.6875 9.1875 10.2751 9.1875 11C9.1875 11.7249 9.77513 12.3125 10.5 12.3125Z" fill="#32CD32"/>
<path d="M31.5 33.3125C32.2249 33.3125 32.8125 32.7249 32.8125 32C32.8125 31.2751 32.2249 30.6875 31.5 30.6875C30.7751 30.6875 30.1875 31.2751 30.1875 32C30.1875 32.7249 30.7751 33.3125 31.5 33.3125Z" fill="#32CD32"/>
<path d="M32.8125 12.3125C33.5374 12.3125 34.125 11.7249 34.125 11C34.125 10.2751 33.5374 9.6875 32.8125 9.6875C32.0876 9.6875 31.5 10.2751 31.5 11C31.5 11.7249 32.0876 12.3125 32.8125 12.3125Z" fill="#32CD32"/>
<path d="M10.5 33.3125C11.2249 33.3125 11.8125 32.7249 11.8125 32C11.8125 31.2751 11.2249 30.6875 10.5 30.6875C9.77513 30.6875 9.1875 31.2751 9.1875 32C9.1875 32.7249 9.77513 33.3125 10.5 33.3125Z" fill="#32CD32"/>
</g>
<defs>
<clipPath id="clip0_312_1300">
<rect width="42" height="42" fill="white" transform="translate(0 0.5)"/>
</clipPath>
</defs>
</svg>
