<svg width="42" height="42" viewBox="0 0 42 42" fill="none" xmlns="http://www.w3.org/2000/svg">
<path d="M21 38.5C30.6652 38.5 38.5 30.6652 38.5 21C38.5 11.3348 30.6652 3.5 21 3.5C11.3348 3.5 3.5 11.3348 3.5 21C3.5 30.6652 11.3348 38.5 21 38.5Z" stroke="#32CD32" stroke-width="1.5" stroke-linecap="round" stroke-linejoin="round"/>
<path d="M27.125 28C27.3571 28 27.5796 27.9078 27.7437 27.7437C27.9078 27.5796 28 27.3571 28 27.125C28 26.8929 27.9078 26.6704 27.7437 26.5063C27.5796 26.3422 27.3571 26.25 27.125 26.25C26.8929 26.25 26.6704 26.3422 26.5063 26.5063C26.3422 26.6704 26.25 26.8929 26.25 27.125C26.25 27.3571 26.3422 27.5796 26.5063 27.7437C26.6704 27.9078 26.8929 28 27.125 28ZM14.875 15.75C15.1071 15.75 15.3296 15.6578 15.4937 15.4937C15.6578 15.3296 15.75 15.1071 15.75 14.875C15.75 14.6429 15.6578 14.4204 15.4937 14.2563C15.3296 14.0922 15.1071 14 14.875 14C14.6429 14 14.4204 14.0922 14.2563 14.2563C14.0922 14.4204 14 14.6429 14 14.875C14 15.1071 14.0922 15.3296 14.2563 15.4937C14.4204 15.6578 14.6429 15.75 14.875 15.75Z" fill="#32CD32" stroke="#32CD32" stroke-width="1.5" stroke-linecap="round" stroke-linejoin="round"/>
<path d="M28 14L14 28" stroke="#32CD32" stroke-width="1.5" stroke-linecap="round" stroke-linejoin="round"/>
</svg>
