<svg width="36" height="37" viewBox="0 0 36 37" fill="none" xmlns="http://www.w3.org/2000/svg">
<path d="M7.2875 28.76L0.73 25.2L2.2025 23.7275L8.0175 24.6025L18.3925 14.2275L0 4.2775L1.865 2.3625L24.49 8.1025L31.8475 0.725C32.3308 0.241667 32.9042 0 33.5675 0C34.2308 0 34.8033 0.241667 35.285 0.725C35.7667 1.20833 36.0083 1.79 36.01 2.47C36.0117 3.15 35.77 3.73083 35.285 4.2125L27.985 11.605L33.68 34.1825L31.815 36.095L21.815 17.7025L11.535 27.98L12.36 33.845L10.8425 35.365L7.2875 28.76Z" fill="#32CD32"/>
</svg>
