<svg width="44" height="42" viewBox="0 0 44 42" fill="none" xmlns="http://www.w3.org/2000/svg">
<path d="M38.6371 0.586792C38.9701 0.586792 39.256 0.869546 39.256 1.23398H39.2717V8.44106H43.9843V17.8662H18.8506L19.735 14.7245H29.7759C30.6682 14.7088 31.4175 14.6962 31.4175 13.1536C31.4175 11.5828 30.6399 11.5828 29.7272 11.5828H20.6194L21.309 9.13224C21.3615 8.93462 21.4777 8.75981 21.6395 8.63487C21.8014 8.50992 21.9999 8.44181 22.2044 8.44106H28.2758L31.4175 3.7285L32.4589 1.91259C32.684 1.51249 33.011 1.17908 33.4066 0.946228C33.8023 0.713372 34.2525 0.589362 34.7115 0.586792H38.6371ZM36.6484 14.7088C37.2296 14.7088 37.6852 14.2375 37.6852 13.672V12.6195C37.6852 12.0383 37.2139 11.5828 36.6484 11.5828H35.5959C35.0147 11.5828 34.5592 12.054 34.5592 12.6195V13.672C34.5592 14.2532 35.0147 14.7088 35.5959 14.7088H36.6484ZM1.5948 19.437C0.536042 19.437 -0.224251 20.4455 0.0600735 21.454L3.14209 32.0039L5.17163 37.9464C5.27217 37.9543 5.38056 37.9574 5.49837 37.9574C6.40161 37.9574 6.7739 37.7186 7.3724 37.3353L7.38497 37.3275C8.15468 36.8342 9.15218 36.1981 10.9806 36.1981C12.8091 36.1981 13.8082 36.8342 14.5779 37.3259L14.5873 37.3322C15.1874 37.7171 15.5644 37.9574 16.4786 37.9574C17.3929 37.9574 17.7699 37.7171 18.3699 37.3322L18.3809 37.3259C19.1507 36.8342 20.1482 36.1981 21.9766 36.1981C23.8051 36.1981 24.8042 36.8342 25.5739 37.3259L25.5833 37.3322C26.1834 37.7171 26.5604 37.9574 27.4746 37.9574C28.3889 37.9574 28.7659 37.7171 29.3659 37.3322L29.3769 37.3259C30.1466 36.8342 31.1441 36.1981 32.9726 36.1981C34.8058 36.1981 35.808 36.8311 36.5809 37.3244L36.5934 37.3322C37.1951 37.7171 37.5721 37.9574 38.4863 37.9574C39.4131 37.9574 39.7933 37.7139 40.3933 37.3306L40.4043 37.3244C41.1709 36.8358 42.1668 36.2012 43.9843 36.1981V19.437H1.5948ZM19.8937 27.2913C19.6178 27.2888 19.3539 27.1782 19.1588 26.9831C18.9638 26.788 18.8531 26.5241 18.8506 26.2483V25.1926C18.8506 24.624 19.3109 24.1496 19.8937 24.1496H20.9493C21.5179 24.1496 21.9923 24.6099 21.9923 25.1926V26.2483C21.9923 26.5249 21.8824 26.7902 21.6868 26.9858C21.4912 27.1814 21.2259 27.2913 20.9493 27.2913H19.8937ZM27.2327 27.2913H26.1771C25.9005 27.2913 25.6352 27.1814 25.4395 26.9858C25.2439 26.7902 25.134 26.5249 25.134 26.2483V25.1926C25.134 24.624 25.5943 24.1496 26.1771 24.1496H27.2327C27.8014 24.1496 28.2758 24.6099 28.2758 25.1926V26.2483C28.2758 26.3852 28.2488 26.5209 28.1964 26.6474C28.1439 26.774 28.0671 26.889 27.9703 26.9858C27.8734 27.0827 27.7584 27.1595 27.6319 27.2119C27.5053 27.2643 27.3697 27.2913 27.2327 27.2913ZM32.4605 27.2913C32.3235 27.2913 32.1879 27.2643 32.0614 27.2119C31.9348 27.1595 31.8198 27.0827 31.723 26.9858C31.6261 26.889 31.5493 26.774 31.4969 26.6474C31.4444 26.5209 31.4175 26.3852 31.4175 26.2483V25.1926C31.4175 24.624 31.8777 24.1496 32.4605 24.1496H33.5161C34.0848 24.1496 34.5592 24.6099 34.5592 25.1926V26.2483C34.5592 26.5249 34.4493 26.7902 34.2537 26.9858C34.0581 27.1814 33.7928 27.2913 33.5161 27.2913H32.4605ZM39.7995 27.2913H38.7439C38.4673 27.2913 38.202 27.1814 38.0064 26.9858C37.8108 26.7902 37.7009 26.5249 37.7009 26.2483V25.1926C37.7009 24.624 38.1611 24.1496 38.7439 24.1496H39.7995C40.3682 24.1496 40.8426 24.6099 40.8426 25.1926V26.2483C40.8426 26.5249 40.7327 26.7902 40.5371 26.9858C40.3415 27.1814 40.0762 27.2913 39.7995 27.2913Z" fill="#32CD32"/>
<path d="M41.251 38.6469C41.9406 38.2071 42.6271 37.7688 44 37.7688L43.9843 41.4132H0.000366211V37.7688C1.37486 37.7688 2.0629 38.2086 2.74936 38.6485C3.43739 39.0883 4.12386 39.5282 5.49836 39.5282C6.86343 39.5282 7.54675 39.0883 8.23164 38.65C8.91653 38.2102 9.60457 37.7688 10.9806 37.7688C12.3551 37.7688 13.0432 38.2086 13.7296 38.6485C14.4177 39.0883 15.1041 39.5282 16.4786 39.5282C17.8531 39.5282 18.5412 39.0883 19.2276 38.6485C19.9157 38.2086 20.6021 37.7688 21.9766 37.7688C23.3511 37.7688 24.0376 38.2086 24.7256 38.6485C25.4136 39.0883 26.1001 39.5282 27.4746 39.5282C28.8491 39.5282 29.5371 39.0883 30.2236 38.6485C30.9116 38.2086 31.5981 37.7688 32.9726 37.7688C34.3565 37.7688 35.0477 38.2086 35.7373 38.65C36.4269 39.0899 37.1134 39.5282 38.4863 39.5282C39.8702 39.5282 40.5614 39.0883 41.251 38.6469Z" fill="#32CD32"/>
</svg>
