<svg width="56" height="38" viewBox="0 0 56 38" fill="none" xmlns="http://www.w3.org/2000/svg">
<path d="M0.5 0.09375V3.53125H33.1562V29.3125H22.5756C21.8091 26.358 19.1519 24.1562 15.9688 24.1562C12.7856 24.1562 10.1284 26.358 9.36188 29.3125H7.375V20.7188H3.9375V32.75H9.36188C10.1284 35.7045 12.7856 37.9062 15.9688 37.9062C19.1519 37.9062 21.8091 35.7045 22.5756 32.75H36.8619C37.6284 35.7045 40.2856 37.9062 43.4688 37.9062C46.6519 37.9062 49.3091 35.7045 50.0756 32.75H55.5V18.7319L55.3917 18.462L51.9542 8.14953L51.5812 6.96875H36.5938V0.09375H0.5ZM2.21875 6.96875V10.4062H17.6875V6.96875H2.21875ZM36.5938 10.4062H49.108L52.0625 19.2148V29.3125H50.0756C49.3091 26.358 46.6519 24.1562 43.4688 24.1562C40.2856 24.1562 37.6284 26.358 36.8619 29.3125H36.5938V10.4062ZM3.9375 13.8438V17.2812H14.25V13.8438H3.9375ZM15.9688 27.5938C17.8886 27.5938 19.4062 29.1114 19.4062 31.0312C19.4062 32.9511 17.8886 34.4688 15.9688 34.4688C14.0489 34.4688 12.5312 32.9511 12.5312 31.0312C12.5312 29.1114 14.0489 27.5938 15.9688 27.5938ZM43.4688 27.5938C45.3886 27.5938 46.9062 29.1114 46.9062 31.0312C46.9062 32.9511 45.3886 34.4688 43.4688 34.4688C41.5489 34.4688 40.0312 32.9511 40.0312 31.0312C40.0312 29.1114 41.5489 27.5938 43.4688 27.5938Z" fill="#32CD32"/>
</svg>
