<svg width="14" height="11" viewBox="0 0 14 11" fill="none" xmlns="http://www.w3.org/2000/svg">
<path d="M6.99982 11C6.46582 11 5.96316 10.792 5.58582 10.414C5.20849 10.036 4.99916 9.53337 4.99982 8.9987C4.99982 8.50137 5.18049 8.33337 5.50916 7.66671H2.28516C1.18249 7.66671 0.285156 6.76871 0.285156 5.66671C0.285156 4.56404 1.18249 3.66671 2.28516 3.66671H5.50916C5.17982 3.00004 4.99982 2.83004 4.99982 2.33271C4.9992 2.06992 5.05073 1.80963 5.15144 1.56691C5.25214 1.32418 5.40002 1.10386 5.58649 0.918706C6.34116 0.164039 7.65849 0.163373 8.41382 0.919372L13.1612 5.66671L8.41382 10.414C8.22863 10.6004 8.00829 10.7482 7.76557 10.8488C7.52284 10.9494 7.26256 11.0008 6.99982 11ZM2.28516 5.00004C2.1135 5.00772 1.95143 5.08131 1.83267 5.20549C1.71392 5.32968 1.64764 5.49488 1.64764 5.66671C1.64764 5.83853 1.71392 6.00373 1.83267 6.12792C1.95143 6.2521 2.1135 6.32569 2.28516 6.33337H8.72382L6.52849 8.5287C6.46636 8.5903 6.4171 8.66362 6.38356 8.74443C6.35003 8.82523 6.3329 8.91189 6.33316 8.99937C6.33316 9.17871 6.40249 9.34537 6.52849 9.47137C6.6554 9.59273 6.82423 9.66045 6.99982 9.66045C7.17542 9.66045 7.34424 9.59273 7.47116 9.47137L11.2758 5.66671L7.47116 1.86204C7.34424 1.74069 7.17542 1.67296 6.99982 1.67296C6.82423 1.67296 6.6554 1.74069 6.52849 1.86204C6.46636 1.92363 6.4171 1.99696 6.38356 2.07776C6.35003 2.15856 6.3329 2.24522 6.33316 2.33271C6.33316 2.51137 6.40249 2.67871 6.52849 2.80471L8.72382 5.00004H2.28516Z" fill="#32CD32"/>
</svg>
